<svg width="169" height="50" viewBox="0 0 169 50" fill="none" xmlns="http://www.w3.org/2000/svg">
<g filter="url(#filter0_di_194_1587)">
<path d="M21.16 38.672C18.504 38.672 16.04 38.256 13.768 37.424C11.496 36.56 9.528 35.344 7.864 33.776C6.232 32.208 4.952 30.368 4.024 28.256C3.096 26.112 2.632 23.76 2.632 21.2C2.632 18.64 3.096 16.304 4.024 14.192C4.952 12.048 6.248 10.192 7.912 8.624C9.576 7.056 11.544 5.856 13.816 5.024C16.12 4.16 18.632 3.728 21.352 3.728C24.52 3.728 27.352 4.256 29.848 5.312C32.344 6.368 34.408 7.888 36.04 9.872L29.992 15.344C28.84 14.096 27.592 13.168 26.248 12.56C24.936 11.92 23.464 11.6 21.832 11.6C20.392 11.6 19.08 11.824 17.896 12.272C16.712 12.72 15.704 13.376 14.872 14.24C14.04 15.072 13.384 16.08 12.904 17.264C12.456 18.416 12.232 19.728 12.232 21.2C12.232 22.608 12.456 23.904 12.904 25.088C13.384 26.272 14.04 27.296 14.872 28.16C15.704 28.992 16.696 29.648 17.848 30.128C19.032 30.576 20.328 30.8 21.736 30.8C23.144 30.8 24.52 30.576 25.864 30.128C27.208 29.648 28.568 28.848 29.944 27.728L35.272 34.4C33.352 35.776 31.128 36.832 28.6 37.568C26.072 38.304 23.592 38.672 21.16 38.672ZM26.872 33.152V20.48H35.272V34.4L26.872 33.152ZM54.3535 38V33.152L53.7295 31.952V23.024C53.7295 21.584 53.2815 20.48 52.3855 19.712C51.5215 18.912 50.1295 18.512 48.2095 18.512C46.9615 18.512 45.6975 18.72 44.4175 19.136C43.1375 19.52 42.0495 20.064 41.1535 20.768L38.0815 14.576C39.5535 13.616 41.3135 12.88 43.3615 12.368C45.4415 11.824 47.5055 11.552 49.5535 11.552C53.7775 11.552 57.0415 12.528 59.3455 14.48C61.6815 16.4 62.8495 19.424 62.8495 23.552V38H54.3535ZM46.6735 38.432C44.5935 38.432 42.8335 38.08 41.3935 37.376C39.9535 36.672 38.8495 35.712 38.0815 34.496C37.3455 33.28 36.9775 31.92 36.9775 30.416C36.9775 28.816 37.3775 27.44 38.1775 26.288C39.0095 25.104 40.2735 24.208 41.9695 23.6C43.6655 22.96 45.8575 22.64 48.5455 22.64H54.6895V27.392H49.7935C48.3215 27.392 47.2815 27.632 46.6735 28.112C46.0975 28.592 45.8095 29.232 45.8095 30.032C45.8095 30.832 46.1135 31.472 46.7215 31.952C47.3295 32.432 48.1615 32.672 49.2175 32.672C50.2095 32.672 51.1055 32.432 51.9055 31.952C52.7375 31.44 53.3455 30.672 53.7295 29.648L54.9775 33.008C54.4975 34.8 53.5535 36.16 52.1455 37.088C50.7695 37.984 48.9455 38.432 46.6735 38.432ZM66.2061 38V2.384H75.3261V38H66.2061ZM78.853 38V2.384H87.973V38H78.853ZM105.132 38.432C102.06 38.432 99.3719 37.856 97.0679 36.704C94.7959 35.52 93.0199 33.92 91.7399 31.904C90.4919 29.856 89.8679 27.536 89.8679 24.944C89.8679 22.352 90.4759 20.048 91.6919 18.032C92.9399 15.984 94.6519 14.4 96.8279 13.28C99.0039 12.128 101.452 11.552 104.172 11.552C106.732 11.552 109.068 12.08 111.18 13.136C113.292 14.16 114.972 15.68 116.22 17.696C117.468 19.712 118.092 22.16 118.092 25.04C118.092 25.36 118.076 25.728 118.044 26.144C118.012 26.56 117.98 26.944 117.948 27.296H97.3559V22.496H113.1L109.644 23.84C109.676 22.656 109.452 21.632 108.972 20.768C108.524 19.904 107.884 19.232 107.052 18.752C106.252 18.272 105.308 18.032 104.22 18.032C103.132 18.032 102.172 18.272 101.34 18.752C100.54 19.232 99.9159 19.92 99.4679 20.816C99.0199 21.68 98.7959 22.704 98.7959 23.888V25.28C98.7959 26.56 99.0519 27.664 99.5639 28.592C100.108 29.52 100.876 30.24 101.868 30.752C102.86 31.232 104.044 31.472 105.42 31.472C106.7 31.472 107.788 31.296 108.684 30.944C109.612 30.56 110.524 29.984 111.42 29.216L116.22 34.208C114.972 35.584 113.436 36.64 111.612 37.376C109.788 38.08 107.628 38.432 105.132 38.432ZM119.897 38V11.984H128.585V19.568L127.289 17.408C128.057 15.456 129.305 14 131.033 13.04C132.761 12.048 134.857 11.552 137.321 11.552V19.76C136.905 19.696 136.537 19.664 136.217 19.664C135.929 19.632 135.609 19.616 135.257 19.616C133.401 19.616 131.897 20.128 130.745 21.152C129.593 22.144 129.017 23.776 129.017 26.048V38H119.897ZM143.945 47.744C142.569 47.744 141.177 47.52 139.769 47.072C138.393 46.656 137.273 46.096 136.409 45.392L139.577 39.008C140.121 39.488 140.745 39.856 141.449 40.112C142.185 40.4 142.905 40.544 143.609 40.544C144.601 40.544 145.385 40.32 145.961 39.872C146.537 39.424 147.033 38.72 147.449 37.76L148.649 34.736L149.369 33.824L158.201 11.984H166.889L155.657 39.056C154.761 41.296 153.721 43.04 152.537 44.288C151.385 45.568 150.089 46.464 148.649 46.976C147.241 47.488 145.673 47.744 143.945 47.744ZM147.497 39.104L136.025 11.984H145.385L153.833 33.008L147.497 39.104Z" fill="#FEFAE9"/>
</g>
<defs>
<filter id="filter0_di_194_1587" x="0.63208" y="0.384033" width="168.257" height="49.3599" filterUnits="userSpaceOnUse" color-interpolation-filters="sRGB">
<feFlood flood-opacity="0" result="BackgroundImageFix"/>
<feColorMatrix in="SourceAlpha" type="matrix" values="0 0 0 0 0 0 0 0 0 0 0 0 0 0 0 0 0 0 127 0" result="hardAlpha"/>
<feOffset/>
<feGaussianBlur stdDeviation="1"/>
<feComposite in2="hardAlpha" operator="out"/>
<feColorMatrix type="matrix" values="0 0 0 0 0 0 0 0 0 0 0 0 0 0 0 0 0 0 0.43 0"/>
<feBlend mode="normal" in2="BackgroundImageFix" result="effect1_dropShadow_194_1587"/>
<feBlend mode="normal" in="SourceGraphic" in2="effect1_dropShadow_194_1587" result="shape"/>
<feColorMatrix in="SourceAlpha" type="matrix" values="0 0 0 0 0 0 0 0 0 0 0 0 0 0 0 0 0 0 127 0" result="hardAlpha"/>
<feOffset dx="2" dy="1"/>
<feGaussianBlur stdDeviation="2.5"/>
<feComposite in2="hardAlpha" operator="arithmetic" k2="-1" k3="1"/>
<feColorMatrix type="matrix" values="0 0 0 0 0.385 0 0 0 0 0.200975 0 0 0 0 0 0 0 0 0.73 0"/>
<feBlend mode="normal" in2="shape" result="effect2_innerShadow_194_1587"/>
</filter>
</defs>
</svg>
