<svg width="79" height="61" viewBox="0 0 79 61" fill="none" xmlns="http://www.w3.org/2000/svg">
<path d="M78.9999 39.0536C75.0884 39.1765 70.7983 39.2695 66.8702 39.3194C64.8489 39.346 62.8275 39.4705 60.8062 39.3659C58.7782 39.2662 56.7585 39.1167 54.7505 38.7729V38.6567C55.7636 38.5005 56.7751 38.4125 57.785 38.3394C59.8047 38.2049 61.8277 38.1434 63.849 38.2448C64.8588 38.2962 65.8687 38.3544 66.8785 38.3909C68.3883 38.4441 71.4311 38.567 72.9392 38.6351C74.9589 38.7364 76.9786 38.8211 78.9982 38.9374V39.0536H78.9999Z" fill="white"/>
<path d="M53.7288 22.9673C53.8966 25.3225 54.0411 27.9069 54.1357 30.2753C54.1606 30.8849 54.2071 31.4928 54.247 32.1023C54.3251 33.3248 54.2387 34.5422 54.0826 35.7564C53.9979 36.3659 53.8966 36.9738 53.7305 37.5834H53.6142C53.1674 35.7879 53.0046 33.9426 53.096 32.1023C53.1774 31.0443 53.2422 29.5229 53.2853 28.4483C53.3783 26.6778 53.4863 24.7262 53.6142 22.9673H53.7305H53.7288Z" fill="white"/>
<path d="M53.5795 44.8134C53.4516 44.2238 53.3519 43.5694 53.2639 42.9714C53.2224 42.606 53.1609 42.0994 53.0829 41.744C52.9849 41.0863 53.2025 40.4452 53.6127 39.9087H53.729C54.0263 40.289 54.1658 40.6926 54.2439 41.1378C54.3252 41.5513 54.1708 41.9583 54.1193 42.3635L54.0362 42.9764C53.9399 43.5727 53.8303 44.2254 53.6958 44.8134H53.5795Z" fill="white"/>
<path d="M58.232 33.9493C57.9347 34.4326 57.5743 34.9408 57.2438 35.4026C57.0312 35.6766 56.7422 36.057 56.5628 36.3493C56.1957 36.8625 55.6127 37.1349 54.9766 37.2047L54.8936 37.1216C54.9318 36.6615 55.0962 36.2945 55.337 35.9374C55.5529 35.6035 55.93 35.4408 56.2323 35.2066L56.694 34.8545C57.1557 34.5223 57.6623 34.1635 58.1473 33.8662L58.2287 33.9476L58.232 33.9493Z" fill="white"/>
<path d="M58.1504 43.5826C57.6671 43.2853 57.1588 42.9249 56.6971 42.5943C56.4231 42.3817 56.0427 42.0927 55.7504 41.9134C55.2372 41.5463 54.9648 40.9633 54.895 40.3272L54.9781 40.2441C55.4381 40.2823 55.8052 40.4468 56.1623 40.6876C56.4961 40.9035 56.6589 41.2806 56.8931 41.5828L57.2452 42.0446C57.5774 42.5063 57.9362 43.0129 58.2335 43.4979L58.1521 43.5793L58.1504 43.5826Z" fill="white"/>
<path d="M48.9622 33.8677C49.4455 34.165 49.9538 34.5254 50.4155 34.8559C50.6896 35.0685 51.0699 35.3575 51.3622 35.5369C51.8754 35.904 52.1478 36.4869 52.2176 37.1231L52.1346 37.2061C51.6745 37.1679 51.3074 37.0035 50.9503 36.7627C50.6165 36.5467 50.4537 36.1697 50.2195 35.8674L49.8674 35.4057C49.5352 34.944 49.1765 34.4374 48.8792 33.9524L48.9605 33.871L48.9622 33.8677Z" fill="white"/>
<path d="M48.8809 43.5196C49.1782 43.0362 49.5386 42.528 49.8691 42.0663C50.0817 41.7922 50.3707 41.4119 50.5501 41.1195C50.9171 40.6063 51.5001 40.3339 52.1363 40.2642L52.2193 40.3472C52.1811 40.8073 52.0167 41.1743 51.7758 41.5314C51.5599 41.8653 51.1829 42.0281 50.8806 42.2622L50.4189 42.6144C49.9571 42.9465 49.4506 43.3053 48.9656 43.6026L48.8825 43.5212L48.8809 43.5196Z" fill="white"/>
<path d="M53.2345 39.1735C43.3003 39.4914 33.2873 39.5671 23.4153 40.677C22.6209 40.8065 21.7896 40.8822 21.0674 41.1866C21.0741 41.1798 21.0825 41.1883 21.1749 41.0941L21.2101 41.0504C21.4755 40.7006 21.4016 40.1607 21.0136 39.9572C21.0053 39.9505 20.9834 39.9455 20.9834 39.9438C20.9868 39.9438 20.9901 39.9438 20.9935 39.9438C21.1346 39.9555 21.3327 39.9724 21.5074 39.9606C22.4949 39.9387 23.5816 39.7924 24.6128 39.9589C25.7582 40.1153 26.9422 40.5492 27.8172 41.3682C29.8544 43.2013 30.5329 46.0686 30.4456 48.7257L29.6378 48.6097C30.9377 43.3779 32.1637 38.1157 33.6584 32.8704C35.1733 27.6235 37.1165 22.4656 39.76 17.6676C42.3598 12.8276 45.7877 8.53925 49.4086 4.42238C50.3306 3.39989 51.2392 2.37572 52.299 1.3936C52.8767 0.875626 53.5233 0.283659 54.3144 0.0583077C54.9811 -0.141818 55.7688 0.1878 56.0325 0.823492C56.543 1.9822 55.972 3.82369 55.6949 4.99753C53.7853 12.2828 50.1744 18.2529 44.6893 23.3906C41.4865 26.4362 37.8907 29.0933 34.1774 31.4645C31.0771 33.4607 27.7131 35.2753 24.381 36.841C16.7209 40.3541 8.49481 42.9003 0.0604613 43.509L0 42.8851C1.32847 42.7321 2.65022 42.5404 3.96693 42.31C11.1669 41.0049 18.1518 38.4269 24.6632 35.1088C27.5787 33.6222 30.5346 31.8681 33.2503 30.0351C37.0896 27.4687 40.7946 24.5694 44.0091 21.2615C45.3695 19.8455 46.6593 18.3471 47.7963 16.7528C49.3297 14.6372 50.5339 12.3029 51.6558 9.94517C52.7424 7.61934 53.8525 5.18589 54.2102 2.63639C54.2405 2.34377 54.2573 2.04611 54.2287 1.83757C54.2203 1.74171 54.1817 1.65426 54.2035 1.72658C54.2186 1.76189 54.2707 1.86784 54.4235 1.96538C54.5226 2.04106 54.6385 2.05452 54.7426 2.06965C54.7913 2.0747 54.8266 2.06629 54.8669 2.06461C54.882 2.05788 54.8669 2.06965 54.8669 2.06797C54.8585 2.0747 54.8468 2.08142 54.8333 2.08815C54.4823 2.32359 54.1918 2.63807 53.8811 2.97106C53.0548 3.90441 52.2788 4.98408 51.5516 6.07888C50.1341 8.2029 48.6915 10.6616 47.3832 12.8747C43.3625 19.7227 39.4459 26.5909 35.9694 33.7466C33.1143 39.5738 31.0116 45.8735 29.579 52.2204L29.6227 48.6837C29.6428 46.3041 28.6754 43.9396 26.7289 42.6682C25.864 42.0712 24.7656 42.0157 23.7277 42.0022C22.9786 41.9618 22.3169 42.014 21.5175 42.0123C20.9465 42.0073 20.2747 41.977 19.8027 41.5599C19.4282 41.232 19.2502 40.6804 19.4114 40.191C19.623 39.557 20.2663 39.2997 20.8121 39.1517C21.6031 38.9432 22.3925 38.849 23.1802 38.7598C29.2011 38.1965 35.2086 38.2032 41.2312 38.1225C45.2301 38.0922 49.2272 38.0956 53.2244 38.1141L53.2345 39.1668V39.1735Z" fill="white"/>
<path d="M34.8135 45.5055C35.186 40.9897 36.6775 36.5745 39.0648 32.7867C40.4472 30.4567 43.2696 27.5009 45.0325 25.4409L42.6515 29.9081C41.9162 31.287 41.4169 32.8001 41.3157 34.3267C41.229 35.7962 41.5004 37.6347 42.5969 38.616C43.9407 39.5554 46.3859 38.1547 47.59 37.2606C48.2178 36.801 48.807 36.2675 49.3978 35.6989L49.5423 35.8045C48.5373 38.148 46.4003 40.3757 43.8075 40.733C42.0976 40.978 40.757 39.8876 40.1903 38.2671C39.1692 35.2577 40.0811 31.8423 41.6802 29.2858L42.5761 30.0088C41.0781 31.5537 39.76 33.2983 38.6442 35.1671C37.53 37.0543 36.6261 39.0723 35.9775 41.1893C35.5456 42.6018 35.2068 44.0511 34.9885 45.5257L34.8135 45.5039V45.5055Z" fill="white"/>
<path d="M44.4025 14.6057C44.464 14.6239 44.4391 14.4147 44.449 14.3765C44.3477 14.4246 44.4059 14.6588 44.4025 14.6057Z" fill="white"/>
<path d="M43.4043 15.0903L43.4209 15.0039L43.2764 15.2148L43.4043 15.0903Z" fill="white"/>
<path d="M42.4626 15.1124C42.5623 15.4645 42.8015 15.0426 42.9742 15.1639L43.0041 15.2436L43.0739 14.9546C42.8696 15.0061 42.6105 15.2054 42.4643 15.1124H42.4626Z" fill="white"/>
<path d="M41.9295 14.3604C41.9661 14.4982 41.8249 14.4833 42.0491 14.4002C42.0375 14.3853 42.0341 14.377 42.0258 14.3653C42.0059 14.3687 41.9777 14.3687 41.9279 14.3604H41.9295Z" fill="white"/>
<path d="M42.0256 14.3643C41.9562 14.2502 42.1248 14.3511 42.0256 14.3643V14.3643Z" fill="white"/>
<path d="M41.5658 14.4613L41.692 14.3334C41.6604 14.252 41.5408 14.2387 41.5824 14.1772C41.4495 14.2503 41.4811 14.3317 41.5641 14.4613H41.5658Z" fill="white"/>
<path d="M41.4529 14.7266L41.5193 14.6702C41.506 14.6369 41.4878 14.6253 41.4529 14.7266Z" fill="white"/>
<path d="M41.6588 14.5537L41.5193 14.67C41.5409 14.7264 41.5492 14.8411 41.5841 14.6268C41.5774 14.7331 41.6007 14.6301 41.6588 14.5537Z" fill="white"/>
<path d="M41.7437 14.6055C41.8217 14.6802 41.918 14.725 41.7918 14.8529C42.041 14.7948 41.9945 14.5473 41.7437 14.6055Z" fill="white"/>
<path d="M42.4275 15.4813L42.5288 15.5826L42.6085 15.4613C42.5687 15.5211 42.4175 15.3716 42.4275 15.4829V15.4813Z" fill="white"/>
<path d="M40.7318 14.3254C40.7285 14.4018 40.7883 14.5247 40.8032 14.6194L40.8963 14.5264C40.8431 14.4782 40.7451 14.435 40.7318 14.3237V14.3254Z" fill="white"/>
<path d="M40.8034 14.6201L40.6655 14.758C40.7967 14.7663 40.8167 14.7032 40.8034 14.6201Z" fill="white"/>
<path d="M41.4494 15.1219L41.6736 14.8379L41.4045 15.1286L41.4494 15.1219Z" fill="white"/>
<path d="M40.1721 14.3498L40.2435 14.1704L40.1123 14.4428L40.1721 14.3498Z" fill="white"/>
<path d="M39.8034 14.4079C39.8532 14.2584 39.7004 14.1704 39.7586 14.0757C39.6589 14.1106 39.5825 14.2418 39.5144 14.3597C39.5925 14.2899 39.6805 14.2982 39.8034 14.4079Z" fill="white"/>
<path d="M39.3979 14.5347C39.4362 14.4965 39.4727 14.4301 39.5142 14.3604C39.4727 14.3969 39.4345 14.45 39.3979 14.5347Z" fill="white"/>
<path d="M40.4164 14.7366C40.4015 14.6918 40.3732 14.5738 40.2869 14.5273L40.3583 14.7366C40.3766 14.7366 40.3965 14.7366 40.4164 14.7366Z" fill="white"/>
<path d="M40.3613 14.7431V14.7364C40.2966 14.7364 40.2534 14.7331 40.2351 14.7314C40.2517 14.7314 40.2899 14.7364 40.3613 14.7431Z" fill="white"/>
<path d="M40.4321 14.7368C40.4321 14.7368 40.4215 14.7368 40.4163 14.7368C40.4233 14.7579 40.4268 14.765 40.4321 14.7368Z" fill="white"/>
<path d="M41.0609 14.9526C40.9828 15.0772 40.8134 15.2151 40.9944 15.3861C41.0476 15.2367 40.943 15.1403 41.0609 14.9526Z" fill="white"/>
<path d="M40.5193 14.9976L40.6754 15.0375C40.6688 14.981 40.6356 14.9013 40.6754 14.8398L40.5193 14.9976Z" fill="white"/>
<path d="M40.4478 15.0688L40.5192 14.9974L40.461 14.9824L40.4478 15.0688Z" fill="white"/>
<path d="M39.6789 14.71C39.6191 14.808 39.5477 14.8229 39.4663 14.8445C39.5577 14.8794 39.6507 14.8927 39.737 14.886C39.7437 14.8179 39.7736 14.695 39.6789 14.7116V14.71Z" fill="white"/>
<path d="M40.0112 14.7397C40.0112 14.7397 40.0012 14.7481 39.9978 14.7532C40.0079 14.7699 40.0162 14.7749 40.0112 14.7397Z" fill="white"/>
<path d="M38.6558 14.9111C38.6607 14.9227 38.6673 14.9359 38.6723 14.9492C38.6723 14.9359 38.6723 14.9244 38.6723 14.9128H38.6558V14.9111Z" fill="white"/>
<path d="M39.7552 14.923C39.825 14.9579 39.8599 14.9031 39.8931 14.835C39.8449 14.8599 39.7934 14.8781 39.737 14.8848C39.7336 14.9147 39.7336 14.9346 39.7552 14.923Z" fill="white"/>
<path d="M39.179 14.6521C39.2172 14.6937 39.2603 14.7285 39.3035 14.7584C39.2637 14.6937 39.1856 14.5957 39.179 14.6521Z" fill="white"/>
<path d="M39.9711 14.6974C39.9711 14.6974 39.9762 14.6889 39.9813 14.6873C39.9559 14.6433 39.9593 14.6653 39.9711 14.6974Z" fill="white"/>
<path d="M39.9711 14.6968C39.9396 14.73 39.9163 14.7848 39.8931 14.8346C39.9329 14.8147 39.9678 14.7881 39.9977 14.7549C39.9877 14.74 39.9778 14.7184 39.9711 14.6984V14.6968Z" fill="white"/>
<path d="M38.546 16.2951C38.5377 16.0957 38.6905 15.8981 38.8582 16.0974C38.9894 15.938 38.835 15.3002 38.6705 14.9497C38.6739 15.0361 38.6822 15.1158 38.541 15.2437C38.6058 15.3467 38.9014 15.4663 38.7901 15.6539C38.6008 15.7735 38.6207 15.5975 38.5127 15.5045C38.619 15.7403 38.2952 15.8881 38.3766 16.2436L38.536 16.0974C38.5443 16.1522 38.4912 16.2485 38.5443 16.2951H38.546Z" fill="white"/>
<path d="M38.9646 14.9449L39.0244 14.915C38.9497 14.8867 38.8916 14.812 38.7819 14.6675C38.6856 14.7721 38.6723 14.8469 38.6707 14.9133H38.9812L38.963 14.9449H38.9646Z" fill="white"/>
<path d="M39.305 14.8898C39.2735 15.1074 39.1323 15.212 39.2436 15.4362C39.4246 15.4064 39.3565 15.2469 39.4578 15.1439C39.1672 15.222 39.5326 15.0177 39.3083 14.9147C39.3631 14.8732 39.4146 14.8582 39.4645 14.845C39.4097 14.8234 39.3548 14.7951 39.3034 14.7603C39.3067 14.7652 39.3083 14.7686 39.3117 14.7735V14.7769C39.3266 14.8018 39.3316 14.8184 39.3166 14.8034C39.3166 14.8068 39.3117 14.8068 39.31 14.8084C39.31 14.8383 39.3067 14.8649 39.3034 14.8898C39.2137 14.8533 39.2851 14.835 39.31 14.8084C39.31 14.7985 39.31 14.7885 39.31 14.7769V14.7735L39.021 14.9164C39.0858 14.9413 39.1655 14.928 39.3017 14.8915L39.305 14.8898Z" fill="white"/>
<path d="M40.8646 15.8557C40.8547 15.8376 40.8547 15.8227 40.8531 15.8062C40.8365 15.8326 40.8299 15.8524 40.8646 15.8557Z" fill="white"/>
<path d="M40.735 15.7347C40.755 15.7032 40.7666 15.6168 40.838 15.6351C40.9028 15.6965 40.8447 15.738 40.8513 15.8078C40.8895 15.748 40.9892 15.645 40.8513 15.5487L40.833 15.5786C40.7101 15.5121 40.5407 15.2547 40.559 15.2231C40.6055 15.4142 40.6453 15.5487 40.735 15.7347Z" fill="white"/>
<path d="M40.021 15.3579L39.7834 15.4841L39.923 15.6585L39.908 15.5473C40.0509 15.5788 40.011 15.4443 40.021 15.3579Z" fill="white"/>
<path d="M38.6177 14.8083L38.6276 14.5791L38.5164 14.9096L38.6177 14.8083Z" fill="white"/>
<path d="M38.297 14.8676L38.2887 14.6699L38.2156 14.7978L38.297 14.8676Z" fill="white"/>
<path d="M21.8706 22.0083L21.8357 22.0897C21.8573 22.0598 21.8673 22.0332 21.8706 22.0083Z" fill="white"/>
<path d="M22.3225 21.7891L22.2893 21.6978C22.2926 21.7559 22.3009 21.7957 22.3225 21.7891Z" fill="white"/>
<path d="M30.4673 16.2499C30.3195 16.0971 30.1318 15.8496 30.1999 16.0605L30.2846 16.2615C30.3478 16.2067 30.4092 16.215 30.4673 16.2482V16.2499Z" fill="white"/>
<path d="M25.699 19.0748C25.7156 19.0914 25.7339 19.108 25.7505 19.1263C25.7488 19.0482 25.7455 18.9751 25.7438 18.9087C25.7305 18.9602 25.7139 19.0167 25.699 19.0764V19.0748Z" fill="white"/>
<path d="M25.9449 19.9385L25.7688 19.8555C25.8153 19.8903 25.8718 19.9186 25.9449 19.9385Z" fill="white"/>
<path d="M19.6252 23.5596L19.6751 23.7871C19.7797 23.7207 19.6751 23.6559 19.6252 23.5596Z" fill="white"/>
<path d="M35.0219 15.378C34.9173 15.3099 34.8392 15.2866 34.7744 15.2866C34.904 15.3913 35.0219 15.5607 35.0219 15.378Z" fill="white"/>
<path d="M20.9986 19.8745C20.977 19.931 20.9803 19.9792 21.0036 20.0207C21.0285 19.9659 21.0318 19.9177 20.9986 19.8745Z" fill="white"/>
<path d="M34.5115 15.3317C34.5314 15.35 34.548 15.3583 34.5679 15.3732C34.6277 15.3267 34.6909 15.2869 34.7739 15.2869C34.6776 15.2088 34.5746 15.1689 34.5115 15.33V15.3317Z" fill="white"/>
<path d="M12.6463 30.0991C12.6345 30.0991 12.6261 30.1042 12.6125 30.1042C12.6362 30.1211 12.643 30.1143 12.6463 30.0991Z" fill="white"/>
<path d="M9.43025 31.8786C9.42858 31.8454 9.44519 31.7955 9.46014 31.749C9.43855 31.7656 9.42526 31.8038 9.43025 31.8786Z" fill="white"/>
<path d="M36.9915 14.9182C36.9999 14.8928 37.059 14.8962 36.9915 14.9182V14.9182Z" fill="white"/>
<path d="M37.4252 15.7305C37.4136 15.757 37.407 15.7886 37.4103 15.8384C37.4103 15.7853 37.4153 15.7521 37.4252 15.7305Z" fill="white"/>
<path d="M34.0787 16.7715C34.0787 16.7715 34.0752 16.7715 34.0718 16.7715C34.0995 16.8113 34.0943 16.8027 34.0787 16.7715Z" fill="white"/>
<path d="M37.1059 15.0043C37.0777 14.9811 37.0444 14.9628 37.0112 14.9512C37.0278 14.9661 37.0561 14.9844 37.1059 15.0043Z" fill="white"/>
<path d="M37.0793 14.9045C37.1041 14.9111 37.1223 14.9144 37.1405 14.9177C37.1455 14.8814 37.1339 14.8599 37.0793 14.9045Z" fill="white"/>
<path d="M36.8965 14.9422C36.9347 14.9339 36.9729 14.9372 37.0094 14.9505C36.9945 14.9372 36.9878 14.9256 36.9895 14.9189C36.9696 14.9239 36.943 14.9339 36.8965 14.9439V14.9422Z" fill="white"/>
<path d="M15.5173 25.7237C15.5173 25.7237 15.5024 25.7221 15.4941 25.7188C15.5074 25.8295 15.5189 25.7998 15.5173 25.7237Z" fill="white"/>
<path d="M29.3563 18.8717C29.3563 18.8717 29.358 18.8631 29.3614 18.8597C29.358 18.8597 29.3528 18.8562 29.3494 18.8545L29.3563 18.8717Z" fill="white"/>
<path d="M29.1739 19.0886C29.1955 18.8029 29.2602 18.8195 29.3483 18.8544L29.0991 18.2764L29.1722 19.0886H29.1739Z" fill="white"/>
<path d="M20.8472 22.635L21.0831 22.723C21.0698 23.0984 20.8954 23.0718 21.1611 23.2346C20.8472 22.6333 21.6677 22.8642 21.3687 22.2662L21.5315 22.341C21.5016 22.3493 21.5149 22.3875 21.485 22.3958C21.8222 22.5851 21.392 21.8925 21.6777 21.8494C21.7856 21.8494 21.8886 21.9075 21.8687 22.0088L21.9783 21.7613C22.0381 21.7447 22.0779 21.856 22.0182 21.8726C22.1045 21.8062 22.1909 21.7397 22.2806 21.6783L22.2872 21.6965C22.2806 21.5819 22.3022 21.3893 22.3171 21.3046C22.435 21.3561 22.3121 21.3876 22.3686 21.4541L22.4583 21.2282C22.6011 21.3544 22.543 21.572 22.4201 21.6019C22.8685 22.135 22.4782 21.3843 22.9732 21.5836L22.8602 21.7331C23.1243 22.0321 23.1791 21.8494 23.4499 21.9855C23.3585 21.8909 22.8536 21.6052 22.9532 21.3693C23.0247 21.3909 23.0994 21.3826 23.1343 21.2132C23.2373 21.4308 23.302 21.3311 23.4133 21.268L23.5396 21.5604C23.6259 21.4208 23.5479 21.278 23.5628 21.1152C23.7156 21.082 23.8468 21.2929 23.9647 21.469C24.2089 21.4159 23.6492 21.1767 23.89 21.0039C24.1259 21.0322 24.2023 20.8545 24.3551 20.5804C24.5311 20.6269 24.4082 20.7698 24.4913 20.8345L24.5095 20.5522C24.5411 20.5455 24.561 20.6219 24.5726 20.6601C24.6341 20.5289 24.458 20.3628 24.581 20.2183C24.4913 19.8762 25.0975 20.5621 25.1423 20.112C25.2237 20.1768 25.1922 20.303 25.252 20.411C25.4214 20.0605 25.4081 20.1403 25.5028 19.7284L25.7668 19.8529C25.5426 19.6819 25.619 19.3497 25.6954 19.074C25.6041 18.9843 25.526 18.9062 25.4795 18.8713L25.6738 18.6155C25.7237 18.6537 25.7353 18.765 25.7403 18.9062C25.7486 18.8746 25.7552 18.8448 25.7602 18.8165C25.8914 18.8929 25.908 19.0839 25.9064 19.2749C25.8532 19.2251 25.8001 19.1736 25.7469 19.1238C25.7519 19.3281 25.7702 19.5506 25.8499 19.7201C25.8532 19.6802 25.8731 19.6387 25.9014 19.6088C25.903 19.6636 25.9097 19.7118 25.928 19.7383C25.9479 19.7666 25.9495 19.6902 25.9612 19.5988L26.1422 19.9111L26.1073 19.7732L26.5076 19.8612C26.6156 19.436 26.6488 18.8746 26.981 18.6056C26.971 18.8846 27.0989 19.0158 27.1919 19.3098C26.9843 19.0358 26.9478 19.539 26.7335 19.5423C26.8464 19.5407 26.873 19.6868 26.8631 19.7433L27.1089 19.3463C27.1836 19.5872 27.2434 19.5008 27.3663 19.5689C27.1388 19.1188 27.5175 19.167 27.6105 18.9726C27.6719 19.1288 27.6919 19.3032 27.5075 19.3231C27.8131 19.6171 27.5673 18.6803 27.8546 18.9261C27.8131 18.9427 27.7832 18.9261 27.7915 19.0125C27.8447 18.8398 28.1237 18.878 28.1104 19.0341L28.0689 19.0507C28.3662 19.0208 28.9209 18.7916 28.8445 18.3714C28.8628 18.4229 28.9525 18.873 28.9608 18.9594C28.9907 18.4511 29.0289 17.9495 29.0704 17.4429C29.1252 17.805 29.5338 18.5923 29.3561 18.8547C29.4375 18.8863 29.5371 18.9212 29.6434 18.7584C29.5836 18.7218 29.386 18.2834 29.4391 18.2335C29.7215 18.5757 29.6185 18.4079 29.9225 18.682C29.8328 18.6255 29.758 18.0542 29.8726 18.0409C29.8776 18.1272 30.0288 18.5823 30.0055 18.6504L30.1317 18.0342C30.0902 18.1505 30.243 18.496 30.3427 18.6322C30.2862 18.5325 30.5785 18.5807 30.6383 18.5092L30.4905 18.4129C30.8177 18.4196 30.6001 17.5741 30.9174 17.526C30.9074 17.6472 30.9971 18.2402 31.1698 18.2701C31.1698 17.9744 31.1598 16.8483 31.3907 16.566L31.4821 16.7138L31.6548 16.4846C31.6349 16.7105 31.5834 17.0642 31.5236 17.4114C31.4638 17.7618 31.3974 18.1023 31.3409 18.3C31.4871 18.398 31.419 18.4793 31.5867 18.4229C31.683 18.5574 31.5468 18.6737 31.5003 18.6936C31.6415 18.6936 31.7794 18.6903 31.9206 18.6936C31.8259 18.3714 32.1514 18.2983 32.075 18.0292C31.9538 18.1754 31.8342 18.3166 31.7163 18.4661C31.6199 18.1438 31.7528 17.4828 32.0567 17.4762C32.1597 17.5908 32.1315 18.0708 32.163 18.1771C32.1747 18.0558 32.3873 17.903 32.4305 17.9761L32.3474 18.1771C32.5318 18.2651 32.5135 17.6854 32.7709 17.9562C32.8424 17.9628 33.0566 18.3348 33.0267 18.1389C32.8424 17.7884 32.5766 16.6357 32.5916 16.3384C32.6215 16.355 33.0234 16.6224 33.138 16.7935C33.3074 17.0659 33.1131 17.526 33.2576 17.7602C33.2443 17.6705 33.2825 17.5476 33.3008 17.5077C33.3855 17.5708 33.3273 17.7917 33.4718 17.722C33.432 17.3831 33.7874 17.6904 33.4885 17.4263C33.6197 17.3018 33.6612 17.4645 33.8323 17.4164C33.7343 17.2121 33.8522 16.6523 33.9867 16.5278C33.9934 16.6141 34.0482 16.7188 34.0731 16.7653C34.387 16.7337 34.5813 16.8649 34.8703 16.8184C34.9102 16.8948 35.0663 16.9712 35.0298 17.124C35.0613 17.0576 35.0813 16.938 35.1676 16.9148C35.3869 17.1772 34.9766 16.9928 35.1643 17.3184C35.1427 17.1224 35.3487 17.0128 35.4566 16.8699C35.3703 16.5759 35.1544 16.86 35.0481 17.0028C34.9783 16.5876 35.1294 16.1175 35.4068 15.875C35.6344 15.7322 35.553 16.1258 35.5862 16.0594C36.0529 16.066 35.8702 15.2788 36.2971 15.5246C36.4848 15.7687 36.3768 16.0511 36.4366 16.2388C36.2539 16.3667 36.1094 16.1125 35.9765 16.1408L36.1592 16.2438C36.1094 16.3401 35.9865 16.4248 35.9034 16.3584C36.0629 16.5793 36.6774 16.2986 37.0561 16.4696C37.1059 16.3716 37.2023 16.2653 37.1392 16.1657L37.0329 16.2172C36.9033 16.0162 37.2056 15.8916 37.0511 15.8119C37.1823 15.6425 37.3235 15.3884 37.5511 15.4847L37.6258 15.7837C37.6109 15.6956 37.4664 15.6176 37.4182 15.7172C37.4913 15.5727 37.7902 16.0909 37.8417 15.684L37.669 15.4897C37.8035 15.3203 37.9563 14.9765 38.1573 15.0512C38.0394 14.7606 38.1174 15.0911 37.9447 14.7539C38.1091 15.1774 37.4564 14.7904 37.6956 15.2273C37.5112 14.8353 37.4365 15.0811 37.2139 14.7539C37.2322 14.8536 37.3019 14.9383 37.1358 14.9067C37.1325 14.9366 37.1192 14.9765 37.1109 14.9981C37.1059 14.9964 37.1043 14.9947 37.0993 14.9914L37.1093 15.003C37.1043 15.018 37.1043 15.0213 37.1126 15.0064C37.1558 15.0462 37.1923 15.0944 37.2122 15.1492C37.1608 15.3867 36.9083 15.41 36.8385 15.5428C36.7389 15.508 36.8634 15.4233 36.7987 15.3236L36.694 15.5179C36.6525 15.297 36.3951 15.1841 36.601 15.023L36.3984 15.0412C36.2639 14.9333 36.0928 14.9067 36.0064 15.013C35.9051 14.9781 35.8021 15.2904 35.8603 15.106L35.5663 15.2871L35.5546 15.2323C35.2391 15.2538 34.9783 15.7023 34.5598 15.3601C34.4651 15.4332 34.3704 15.5179 34.1844 15.4847L34.1163 15.3004C33.995 15.3884 33.6811 15.1857 33.6595 15.3934C33.4204 14.9084 32.9885 15.4066 32.7377 15.3601L32.7792 15.6093C32.6148 15.6242 32.4753 15.7305 32.2976 15.8734L32.3557 16.0893C32.2245 16.3052 31.884 16.0295 31.6183 16.1125C31.6183 16.0245 31.6913 16.0312 31.7511 16.071C31.5336 15.8601 31.3824 15.988 31.2412 16.1308C31.1001 16.2786 30.9688 16.4397 30.7795 16.2986C30.7263 16.3949 30.6666 16.3816 30.6034 16.3401C30.6101 16.3384 30.6151 16.3318 30.6184 16.3235C30.6101 16.3235 30.5985 16.3235 30.5885 16.3285C30.547 16.2986 30.5038 16.2637 30.4589 16.2388C30.5021 16.2836 30.542 16.3202 30.5735 16.3334C30.5187 16.3517 30.4407 16.3999 30.3709 16.4746L30.2762 16.2504C30.2762 16.2504 30.2646 16.2554 30.258 16.262C30.1533 16.1972 30.2198 16.3883 30.3078 16.5527C30.2762 16.6008 30.2497 16.6573 30.2347 16.7204C30.0719 16.3617 30.0504 16.8998 29.856 16.5244C29.851 16.7354 29.479 16.7869 29.5488 17.2071C29.5322 17.1539 29.5006 17.1357 29.5438 17.1207C29.4391 17.0991 29.3345 17.0792 29.2847 17.2154L29.1634 16.933L29.0754 17.3831C28.9043 17.2386 28.8229 17.149 28.8794 16.8882C28.6867 17.3167 28.6784 17.0825 28.5356 17.5011L28.4908 17.3084C28.4044 17.3433 28.3413 17.6389 28.2416 17.4994C27.9343 17.2021 27.255 17.7436 26.6455 17.5924C26.9295 18.109 26.3282 17.4263 26.4545 17.8582C26.3797 17.7386 26.2851 17.6888 26.3266 17.5476C26.114 17.7635 25.8648 17.4728 25.8183 17.8964C25.7419 17.7768 25.805 17.6871 25.7502 17.619C25.7403 17.6539 25.7104 17.7618 25.6556 17.6937C25.6008 17.6273 25.6539 17.5708 25.6738 17.4994C25.4197 17.619 25.5393 18.0259 25.6589 18.4063C25.4629 18.2784 25.4064 18.3282 25.4048 18.6072C25.3134 18.5026 25.1888 18.4046 25.3333 18.3C25.237 18.3166 24.7122 18.3265 24.8201 18.6305C24.762 18.5674 24.6872 18.6587 24.6773 18.7036C24.4713 18.7667 24.4414 18.7484 24.2571 18.8564L24.3318 18.883C24.3999 19.2699 24.2023 19.0291 24.0611 19.1354L24.0511 19.0972C23.5827 18.9926 23.9448 19.2783 23.4681 19.1437L23.5827 19.3547C23.7555 19.8413 23.1509 19.2151 23.023 19.4875L23.1526 19.5789C23.1144 19.7882 22.553 19.0806 22.4101 19.074C22.3669 19.0441 22.4201 18.9909 22.44 18.9461C22.0148 18.8049 22.5314 19.2467 22.342 19.4144C22.2307 19.2816 22.2125 18.9992 22.0514 19.0441C21.9168 18.9577 21.8587 19.7466 21.5182 19.5523C21.6195 19.647 21.7208 19.7433 21.6627 19.8795C21.5298 19.9941 21.0216 19.6437 21.0714 20.0838C21.0365 20.0622 21.0133 20.0356 20.9967 20.0074C20.9286 20.1635 20.6977 20.3628 20.7343 20.5954C20.4868 20.2599 20.3523 20.4442 20.2376 20.6269C20.1264 20.8163 20.0334 21.0023 19.8473 20.6701L19.5151 20.9076L19.4853 20.8345C19.2345 20.9209 19.2461 21.1235 19.261 21.3262C19.183 21.3129 19.1846 21.2282 19.168 21.1916C18.7677 21.2597 18.7478 21.3096 18.6814 21.7979L18.5219 21.6069C18.5219 21.6899 18.3558 21.6799 18.1665 21.7065C17.9771 21.7331 17.7712 21.8028 17.6948 22.0271C17.6815 22.0022 17.6616 21.9573 17.6665 21.9125C17.5735 22.15 17.2679 22.1483 17.0304 22.1948C16.7962 22.2447 16.6335 22.3426 16.8361 22.7529L16.7447 23.095C17.0719 22.9422 16.9341 23.4405 17.14 23.4737C17.062 23.5966 16.6899 23.4671 16.7995 23.3292L16.8477 23.3492C16.6185 22.9373 16.3926 23.4754 16.2083 23.2213C15.9392 23.4505 15.6303 23.6216 15.3197 23.7876C15.0174 23.9654 14.7151 24.1364 14.456 24.3507L14.7583 24.5699C14.6952 24.6148 14.632 24.6596 14.5723 24.7095C14.4709 24.6895 14.3198 24.5567 14.451 24.452C14.2467 24.3607 14.3663 24.7726 14.4178 24.8324C14.0823 24.9486 14.2185 24.4337 14.1421 24.4969L14.0623 24.6115L14.1138 24.6214C14.1354 24.8058 14.2384 24.927 14.0823 25.0516C13.9411 25.0865 13.878 24.9353 13.8331 24.9603C13.8149 24.942 13.7949 24.9453 13.77 25.0051C13.692 25.0666 13.6106 25.1247 13.5375 25.1895L13.8232 25.309C13.8315 25.5001 13.6222 25.4967 13.9461 25.6279C13.4528 25.4203 13.0625 26.2857 12.8781 26.2823C12.9163 26.5597 12.8 26.6909 12.6356 26.8421C12.717 26.8388 12.9861 27.0215 12.8349 27.1377C12.3599 26.6577 12.3931 27.2241 11.9214 27.0547C12.2586 27.1394 11.6474 27.5397 12.1423 27.6377C12.0011 27.7307 11.9364 27.4948 11.7354 27.4981C11.7188 27.724 11.5743 27.8801 11.3916 28.028C11.2155 28.1791 10.9996 28.322 10.9166 28.5561C10.9863 28.6093 11.1408 28.6126 11.1989 28.7687C11.0328 28.7621 10.8634 28.7588 10.6957 28.7555C10.6824 28.8601 11.0843 29.0893 10.7339 29.0827C10.8103 29.0993 10.9249 29.1242 10.9166 29.1923C10.7006 29.3351 10.5645 29.5311 10.4548 29.7437C10.4 29.85 10.3519 29.9596 10.3053 30.0709C10.2572 30.1805 10.2173 30.2951 10.1791 30.4097C10.0994 30.6389 10.0114 30.8615 9.87185 31.0625C9.73731 31.2684 9.56624 31.4594 9.29053 31.6222C9.49648 31.5541 9.48153 31.6438 9.4533 31.7385C9.51309 31.6903 9.65759 31.8115 9.77385 31.8381C9.62603 31.9261 9.47157 32.0158 9.33205 32.1138C9.62603 32.2816 9.23073 32.5357 9.52306 32.6619L9.50313 32.5257C9.81538 32.7832 10.3618 32.5357 10.8103 32.7035C10.6342 32.5606 10.8086 32.4942 10.9797 32.4211C11.1491 32.3447 11.3002 32.2583 11.0627 32.0241C11.174 32.0009 11.189 32.1255 11.3036 32.1338C11.1341 31.9992 11.1242 31.9029 11.2637 31.7883L11.3052 31.8232C11.3584 31.6089 11.4663 31.4827 11.5843 31.3581C11.6457 31.2967 11.7105 31.2352 11.7819 31.1671C11.85 31.0974 11.9264 31.0209 12.0161 30.9296L11.7885 30.8565C11.8666 30.7768 11.943 30.7901 12.0178 30.7735C11.7553 30.5044 11.8633 31.0259 11.5593 30.7535C11.8085 30.7967 11.8948 30.6323 11.9879 30.4762C12.0809 30.32 12.1755 30.1722 12.4396 30.2686C12.526 30.1324 12.1772 30.1739 12.2636 30.036L12.4131 30.0726L12.2702 29.9414C12.3533 29.8649 12.5393 29.9148 12.6472 29.9762C12.6207 29.9912 12.6406 30.056 12.6356 30.0842C12.8549 30.0576 12.7818 29.7271 12.8532 29.7155L12.6971 29.7985C12.7452 29.571 12.8997 29.3783 13.0309 29.174C13.1638 28.9697 13.2734 28.7538 13.29 28.4964L13.1804 28.4548C13.2203 28.0662 13.4395 28.3186 13.5873 27.9715L13.6006 27.9981C13.5574 27.8702 13.579 27.7589 13.6538 27.6908C13.6936 27.8436 13.961 27.7224 13.9943 27.9051C14.059 27.4915 13.976 27.6609 13.8199 27.2058L13.9943 27.2855C13.9228 27.1128 13.8597 27.048 13.9477 26.8753C13.9644 27.0945 14.2351 26.9766 14.2783 27.244C14.8347 27.2407 14.3746 26.5498 14.921 26.8305C14.6769 26.3455 14.4875 26.8753 14.4759 26.7275C14.2965 26.6743 14.3015 26.3571 14.4244 26.3023C14.5208 26.2176 15.034 26.6046 15.2499 26.3886C15.2267 26.4086 15.2516 26.4368 15.2283 26.4567C15.4027 26.4717 15.2682 26.1744 15.5173 26.2292C15.3628 25.9502 15.6618 26.1163 15.4094 25.8106L15.2649 26.0747C15.3097 25.8904 15.1037 25.4419 15.4575 25.4237C15.4957 25.4967 15.504 25.6263 15.5057 25.7077C15.6386 25.7376 15.5655 25.5499 15.7067 25.5848C15.8312 25.7392 15.7781 25.8106 15.7067 25.8887C15.6386 25.9684 15.5472 26.0515 15.5887 26.2209C15.7615 26.2857 15.6269 25.7874 15.8561 26.1611C15.5754 25.6728 16.1269 26.0116 16.0056 25.5648L16.1518 25.7509C16.1518 25.701 16.1302 25.5731 16.18 25.5366L16.2996 25.8389C16.2548 25.5316 16.6916 25.8007 16.7182 25.5881C16.4707 25.814 16.4773 25.4203 16.2581 25.3838C16.371 24.8639 16.8361 25.696 17.1234 25.3207C17.0952 25.3854 16.8494 25.3572 16.8577 25.2111C16.9573 25.1928 17.1068 25.1911 17.2264 25.2542C17.4357 25.025 17.0387 25.0931 17.0503 24.8971C17.3111 25.0566 17.0968 24.7095 17.1483 24.5517L17.2962 24.741C17.6682 24.6447 17.0653 24.2843 17.4373 24.2394L17.5287 24.5865L17.6117 24.4188L17.7479 24.658C17.7712 24.3889 17.8492 24.3972 18.0369 24.354C17.9041 24.2411 17.7994 23.987 17.924 23.8873C18.0934 23.9388 18.0087 24.1082 18.1681 23.9488C18.2146 24.1016 18.2794 24.2876 18.0735 24.1647C18.1117 24.2344 18.1216 24.3158 18.1582 24.3856C18.3475 24.452 18.409 24.2444 18.4771 24.1996C18.4455 24.2095 18.4073 24.2195 18.3741 24.2029L18.4522 23.7478C18.5452 23.7943 18.5535 23.8757 18.5601 23.9571C18.6 23.8989 18.5751 23.7827 18.6432 23.7112C18.7329 23.8873 18.8508 24.0501 18.791 24.2012L18.9222 23.8508C18.987 23.9089 19.1813 23.9571 19.1879 24.0401C19.3873 24.0418 19.3225 23.4903 19.5999 23.502C19.5899 23.4638 19.5899 23.4206 19.6165 23.3724C19.8208 23.2977 20.1031 23.404 20.1779 23.0419L20.4785 23.2694C20.608 23.1033 20.0848 22.9854 20.3041 22.708C20.4519 22.4955 20.53 22.9223 20.6496 22.9672C20.6595 22.7579 20.6595 22.3443 20.9851 22.4855C20.9552 22.5785 20.8821 22.5602 20.8372 22.6167L20.8472 22.635ZM22.9483 21.3677C22.9267 21.4341 22.9101 21.6152 22.8171 21.5022C22.7456 21.2298 22.842 21.3311 22.9483 21.3677ZM26.2053 19.3796C26.1987 19.4676 26.1339 19.4493 26.0426 19.3862C26.0791 19.3513 26.1306 19.3414 26.2053 19.3796ZM36.2705 15.2156C36.2705 15.2156 36.2672 15.2223 36.2672 15.2273C36.1443 15.1492 36.1875 15.1808 36.2705 15.2156ZM36.5147 15.2871C36.5329 15.2505 36.5279 15.2173 36.5147 15.1857C36.5063 15.2489 36.4565 15.2588 36.3951 15.2505C36.42 15.3103 36.4549 15.3502 36.5163 15.2871H36.5147ZM13.8813 25.0499L13.9594 25.0632C13.9328 25.1845 13.9095 25.1197 13.8813 25.0499Z" fill="white"/>
<path d="M25.9182 19.8373C25.8916 19.804 25.8717 19.7642 25.8534 19.7227C25.8501 19.7675 25.8667 19.8107 25.9182 19.8373Z" fill="white"/>
<path d="M19.6152 23.5163C19.6152 23.5163 19.6102 23.5163 19.6069 23.5163C19.6119 23.5312 19.6169 23.5444 19.6235 23.556L19.6135 23.5146L19.6152 23.5163Z" fill="white"/>
<path d="M33.374 17.8722C33.3225 17.8473 33.2876 17.8091 33.2627 17.7676C33.2727 17.8257 33.3026 17.8706 33.374 17.8722Z" fill="white"/>
<path d="M37.6856 14.7316L37.5444 14.8097C37.6142 14.7898 37.6457 14.8396 37.6873 14.8728C37.6773 14.818 37.6408 14.7399 37.6873 14.73L37.6856 14.7316Z" fill="white"/>
<path d="M39.1089 16.0821C39.1272 16.0505 39.1538 16.0755 39.172 16.0439L39.1571 15.9326C39.0674 15.9476 39.0126 16.0422 39.1106 16.0821H39.1089Z" fill="white"/>
<path d="M37.9116 15.509C37.9448 15.7083 38.0295 15.6302 38.1275 15.5821C38.1209 15.5821 38.1159 15.5854 38.1093 15.5837C38.1093 15.2997 38.0096 15.4043 37.9116 15.509Z" fill="white"/>
<path d="M38.1509 15.5724C38.1808 15.5591 38.2123 15.5508 38.2455 15.5574C38.2455 15.4428 38.204 15.5375 38.1509 15.5724Z" fill="white"/>
<path d="M36.7891 15.1144C36.8439 15.1593 36.7875 14.8537 36.8257 14.9317C36.8473 14.6693 36.5383 15.2855 36.7891 15.1144Z" fill="white"/>
<path d="M38.0663 16.1636L38.0031 15.9194L37.9683 16.1254L38.0663 16.1636Z" fill="white"/>
<path d="M37.2442 16.0704L37.4153 16.1202C37.4086 16.0787 37.4252 16.0521 37.4485 16.0305C37.3472 16.0338 37.2309 15.9956 37.2442 16.0687V16.0704Z" fill="white"/>
<path d="M37.4468 16.0306C37.4999 16.0306 37.5481 16.019 37.573 15.9741C37.5448 15.9791 37.485 15.9957 37.4468 16.0306Z" fill="white"/>
<path d="M37.8535 16.2619L37.7986 16.2154L37.6824 16.2104L37.8535 16.2619Z" fill="white"/>
<path d="M35.4951 16.2651L35.3306 16.3648C35.3256 16.4528 35.3821 16.496 35.4419 16.4512C35.4751 16.3847 35.5349 16.3415 35.4951 16.2651Z" fill="white"/>
<path d="M36.1278 16.8628C36.073 16.8179 36.0614 16.7631 36.0232 16.6851L36.0631 16.9923L36.1278 16.8628Z" fill="white"/>
<path d="M35.6298 17.0093C35.6248 17.0973 35.4155 17.295 35.6331 17.2385C35.6381 17.1521 35.8009 17.0525 35.6298 17.0093Z" fill="white"/>
<path d="M32.9388 17.0917L32.982 17.0784L32.874 16.5835L32.9388 17.0917Z" fill="white"/>
<path d="M30.941 18.7982C31.1702 18.8663 30.9127 18.4827 31.1286 18.5856C31.1469 18.4577 30.9509 18.5026 30.9742 18.3896C30.8845 18.5425 30.8031 18.4893 30.941 18.7982Z" fill="white"/>
<path d="M30.9741 18.389C30.9891 18.3641 31.004 18.3359 31.0173 18.2993C30.9891 18.3392 30.9791 18.3658 30.9741 18.389Z" fill="white"/>
<path d="M9.01169 32.311L8.86719 32.4256L9.05819 32.3791L9.01169 32.311Z" fill="white"/>
<path d="M9.29561 32.6828L8.97339 32.6313L9.23249 32.7908C9.22751 32.7559 9.2192 32.6878 9.29561 32.6828Z" fill="white"/>
<path d="M23.553 21.7995L23.5298 21.7248C23.4766 21.6567 23.445 21.6633 23.3853 21.6783L23.553 21.7995Z" fill="white"/>
<path d="M21.8724 22.3653L21.9023 22.357L21.7163 22.1245L21.8724 22.3653Z" fill="white"/>
<path d="M20.7692 23.4C20.8274 23.3818 20.8556 23.2904 20.9137 23.2705C20.8274 23.3801 20.5716 23.0928 20.7692 23.4Z" fill="white"/>
<path d="M10.4917 34.2421C10.5465 34.0511 10.3306 34.0743 10.299 34.0361C10.2807 34.3783 10.5465 34.2454 10.4917 34.2421Z" fill="white"/>
<path d="M10.5896 37.5122L10.5066 37.4541L10.6046 37.69L10.7175 37.9225C10.671 37.7863 10.6229 37.6484 10.5896 37.5106V37.5122Z" fill="white"/>
<path d="M10.8489 40.4826C11.0017 40.3115 10.9203 40.0558 10.8522 39.7634C10.7758 39.4728 10.6662 39.1472 10.6994 38.8798C10.7227 38.8483 10.7492 38.8184 10.7742 38.7868L10.4785 38.5659C10.5018 38.8915 10.6214 39.2569 10.6978 39.5974C10.7393 39.7668 10.7692 39.9329 10.8007 40.0823C10.834 40.2318 10.8539 40.368 10.8506 40.4843L10.8489 40.4826Z" fill="white"/>
<path d="M10.4766 42.2469C10.5829 42.109 10.6859 42.5608 10.4168 41.8599C10.4118 41.8997 10.4068 41.913 10.4019 41.9363C10.4218 42.001 10.445 42.0907 10.4783 42.2452L10.4766 42.2469Z" fill="white"/>
<path d="M10.4003 41.9358C10.304 41.6203 10.3438 42.175 10.4003 41.9358V41.9358Z" fill="white"/>
<path d="M10.935 43.3542L10.6758 42.9888C10.6277 43.1001 10.739 43.4738 10.636 43.3575C10.8486 43.7578 10.8934 43.6382 10.935 43.3542Z" fill="white"/>
<path d="M11.317 43.6401C11.2705 43.5803 11.2306 43.5172 11.1907 43.4541C11.1741 43.5023 11.1758 43.5654 11.317 43.6401Z" fill="white"/>
<path d="M10.9302 43.0503L11.1893 43.4539C11.2225 43.3742 11.3288 43.3293 11.0813 43.2662C11.1926 43.2662 11.068 43.2147 10.9302 43.0503Z" fill="white"/>
<path d="M10.8934 42.7813C10.8884 42.5305 10.8353 42.2299 11.091 42.5903C11.0096 42.4059 10.9499 42.2731 10.8984 42.195C10.8469 42.1169 10.8037 42.092 10.7788 42.1153C10.7306 42.1601 10.729 42.4059 10.895 42.7813H10.8934Z" fill="white"/>
<path d="M11.2391 40.5624L11.284 40.2468L11.1162 40.0093C11.1993 40.1272 11.1328 40.6022 11.2375 40.5624H11.2391Z" fill="white"/>
<path d="M11.877 45.8677C11.9551 45.8544 11.9883 45.6435 12.0581 45.5688L11.8372 45.3296C11.8654 45.4973 11.965 45.793 11.8754 45.8677H11.877Z" fill="white"/>
<path d="M12.0593 45.57C12.1689 45.688 12.2769 45.8075 12.3965 45.9172C12.2935 45.7378 12.2337 45.6298 12.1806 45.5817C12.1291 45.5335 12.0909 45.5385 12.0593 45.57Z" fill="white"/>
<path d="M11.7123 43.5633C11.6177 43.4669 11.5346 43.364 11.4499 43.261L11.1958 42.9487C11.3851 43.2045 11.5612 43.4586 11.7721 43.6945L11.7123 43.5633Z" fill="white"/>
<path d="M12.8154 47.4168L12.5181 47.2905L13.008 47.538L12.8154 47.4168Z" fill="white"/>
<path d="M13.5327 48.37C13.2952 48.3002 13.5044 48.7337 13.3035 48.6208C13.526 48.8649 13.7951 49.0077 14.0343 49.1323C13.8233 48.9629 13.6606 48.7287 13.531 48.3683L13.5327 48.37Z" fill="white"/>
<path d="M14.4331 49.3436C14.3218 49.2672 14.1823 49.2057 14.0361 49.1343C14.1524 49.2206 14.2803 49.2921 14.4331 49.3436Z" fill="white"/>
<path d="M12.7705 46.6147C12.7522 46.6679 12.6791 46.7958 12.7821 47.0433C12.807 46.9552 12.8319 46.8655 12.8618 46.7742C12.8336 46.726 12.8021 46.6712 12.7705 46.6147Z" fill="white"/>
<path d="M12.8652 46.7637V46.7736C12.9632 46.9447 13.0413 47.0577 13.0712 47.1075C13.0463 47.0626 12.9765 46.9646 12.8652 46.7637Z" fill="white"/>
<path d="M12.7471 46.5747C12.7553 46.5896 12.7619 46.5995 12.7702 46.6144C12.7785 46.5879 12.7801 46.5764 12.7471 46.5747Z" fill="white"/>
<path d="M12.0229 44.7397C12.2538 44.9308 12.6209 45.3626 12.5378 44.8045C12.3203 44.6999 12.3701 45.0221 12.0229 44.7397Z" fill="white"/>
<path d="M12.8584 46.2431L12.6508 45.8013C12.6059 45.8378 12.581 45.9541 12.4614 45.8677L12.86 46.2431H12.8584Z" fill="white"/>
<path d="M13.0394 46.4104L12.8584 46.2427L12.9365 46.4071L13.0394 46.4104Z" fill="white"/>
<path d="M14.0508 48.5632C14.2551 48.6728 14.3979 48.8538 14.584 49.0382C14.4278 48.8057 14.2767 48.5565 14.1056 48.3423C14.0292 48.3539 13.8598 48.3307 14.0508 48.5648V48.5632Z" fill="white"/>
<path d="M13.4663 47.6943C13.4779 47.7042 13.4911 47.7174 13.5027 47.7257C13.501 47.691 13.4928 47.6695 13.4663 47.6943Z" fill="white"/>
<path d="M16.3362 50.9009C16.3362 50.8811 16.3345 50.8646 16.3329 50.8447C16.3213 50.8513 16.3114 50.858 16.2998 50.8646L16.3345 50.8993L16.3362 50.9009Z" fill="white"/>
<path d="M14.1073 48.2805C14.011 48.0895 13.8931 48.0231 13.7668 47.9683C13.8798 48.0795 13.9927 48.2025 14.104 48.342C14.1389 48.337 14.1555 48.327 14.1073 48.2805Z" fill="white"/>
<path d="M14.9843 49.8225C14.9444 49.7096 14.8913 49.59 14.8298 49.4688C14.8498 49.5933 14.9162 49.8308 14.9843 49.8225Z" fill="white"/>
<path d="M13.496 47.8187C13.4877 47.8121 13.4795 47.8071 13.4712 47.7988C13.4728 47.8831 13.4861 47.8617 13.496 47.8187Z" fill="white"/>
<path d="M13.4963 47.8191C13.581 47.8922 13.6774 47.927 13.7671 47.9669C13.6741 47.8772 13.586 47.7925 13.503 47.7261C13.5063 47.756 13.503 47.7909 13.4963 47.8191Z" fill="white"/>
<path d="M17.8193 50.4116C17.6649 50.5345 17.1483 50.3119 16.9673 49.8485C16.557 49.6326 16.2863 50.3053 16.3328 50.8467C16.4026 50.7936 16.4591 50.7388 16.8859 50.9746C16.861 50.8783 16.7132 50.6541 16.6218 50.473C16.5305 50.2937 16.5089 50.1458 16.7082 50.2222C17.2314 50.5677 17.0304 50.6159 17.1816 50.8982C17.1699 50.7205 17.3759 50.7886 17.5984 50.8534C17.8193 50.9231 18.0735 50.9697 18.1399 50.7919C17.9738 50.7139 17.8193 50.6225 17.6599 50.5345C17.6898 50.4863 17.8908 50.5494 17.8177 50.4116H17.8193Z" fill="white"/>
<path d="M15.7035 50.1841L15.5474 50.0596C15.6802 50.2456 15.735 50.415 15.8347 50.7389C16.132 50.91 16.24 50.895 16.2998 50.8668C16.0672 50.6409 15.8563 50.3934 15.6337 50.1576L15.7018 50.1858L15.7035 50.1841Z" fill="white"/>
<path d="M14.9477 49.4049C15.2118 49.38 15.5855 49.6707 15.5689 49.2986C15.1836 48.8801 15.1719 49.1176 14.8763 48.9199C15.5274 49.5843 14.6089 48.7954 14.961 49.3833C14.8132 49.2687 14.6953 49.1508 14.584 49.0379C14.6753 49.1824 14.7584 49.3268 14.8298 49.4697C14.8281 49.4597 14.8265 49.4531 14.8248 49.4448L14.8215 49.4415H14.8248C14.8182 49.3916 14.8215 49.37 14.8398 49.4149C14.8431 49.4149 14.8514 49.4232 14.8564 49.4265C14.8829 49.4116 14.9145 49.4082 14.9444 49.4049C15.0906 49.6391 14.9311 49.4747 14.8564 49.4265C14.8464 49.4315 14.8348 49.4315 14.8248 49.4381C14.8248 49.4381 14.8248 49.4415 14.8248 49.4431C15.0607 49.6557 15.2949 49.8666 15.5457 50.0593C15.4875 49.9779 15.4144 49.8932 15.3148 49.7936C15.2185 49.6889 15.1005 49.5627 14.9461 49.4049H14.9477Z" fill="white"/>
<path d="M13.1689 45.022C13.1656 45.055 13.1507 45.0617 13.1375 45.0716C13.187 45.1112 13.2118 45.1212 13.1689 45.022Z" fill="white"/>
<path d="M13.2319 45.4108C13.1721 45.3693 13.0658 45.3659 12.9894 45.1633C12.9612 44.9673 13.0807 45.1151 13.1372 45.0736C13.0293 44.9873 12.7951 44.7431 12.8881 45.155L12.9429 45.1982C12.9894 45.3809 13.0293 45.6001 13.0392 45.7762C13.0508 45.9506 13.0392 46.0785 13.011 46.0586C13.1206 45.8659 13.1904 45.7131 13.2302 45.4125L13.2319 45.4108Z" fill="white"/>
<path d="M14.031 47.4266C14.2054 47.616 14.3981 47.7904 14.5791 47.9714L14.4894 47.5529L14.413 47.6359C14.1821 47.2705 14.1356 47.4183 14.031 47.4266Z" fill="white"/>
<path d="M16.3282 51.0391L16.0957 51.1321L16.6471 51.2085L16.3282 51.0391Z" fill="white"/>
<path d="M17.0921 51.7104L16.9343 51.8334C17.0273 51.8633 17.1237 51.8898 17.2183 51.9181L17.0938 51.7104H17.0921Z" fill="white"/>
<path d="M68.1304 50.6428C68.1769 50.5879 68.2217 50.5298 68.2666 50.4717C68.1985 50.5464 68.1586 50.5996 68.1304 50.6428Z" fill="white"/>
<path d="M66.8682 51.504L66.8898 51.6054C66.9197 51.5223 66.923 51.4741 66.8682 51.504Z" fill="white"/>
<path d="M39.5662 60.5366C39.8734 60.7476 40.2156 61.0631 40.1956 60.8389L40.1143 60.6147C39.8834 60.6346 39.7107 60.5948 39.5678 60.5366H39.5662Z" fill="white"/>
<path d="M55.7664 57.819C55.7316 57.8057 55.695 57.794 55.6585 57.7808C55.6037 57.8721 55.5538 57.9601 55.5073 58.0365C55.5854 57.9718 55.6734 57.897 55.7664 57.819Z" fill="white"/>
<path d="M55.73 56.9005L56.1635 56.9122C56.0605 56.8939 55.921 56.8873 55.73 56.9005Z" fill="white"/>
<path d="M73.7558 44.7147L73.7093 44.3975C73.4984 44.6981 73.6827 44.6283 73.7558 44.7147Z" fill="white"/>
<path d="M25.8435 57.0374C26.0711 57.225 26.2654 57.3463 26.4448 57.4327C26.1757 57.1852 25.998 56.9078 25.8435 57.0374Z" fill="white"/>
<path d="M68.9625 52.8631C69.0522 52.7518 69.0754 52.682 69.0439 52.6455C68.9492 52.7568 68.9077 52.8382 68.9625 52.8631Z" fill="white"/>
<path d="M27.2053 57.7359C27.1671 57.6977 27.1239 57.6711 27.084 57.6362C26.8764 57.5997 26.6721 57.5449 26.4446 57.4336C26.5442 57.5249 26.6539 57.613 26.7801 57.6728C26.9063 57.7292 27.0492 57.7575 27.2053 57.7375V57.7359Z" fill="white"/>
<path d="M65.0127 20.4501C64.9978 20.4319 64.978 20.4153 64.9664 20.3955C64.9466 20.417 64.9714 20.4335 65.0127 20.4501Z" fill="white"/>
<path d="M57.2048 15.4395C57.2995 15.4411 57.449 15.466 57.5918 15.4876C57.5254 15.461 57.4091 15.4428 57.2048 15.4395Z" fill="white"/>
<path d="M20.2729 54.247C20.0885 54.1373 20.2314 54.247 20.2729 54.247V54.247Z" fill="white"/>
<path d="M19.9104 52.9576C19.9602 52.9626 20.0067 52.9576 20.04 52.9194C19.9951 52.9527 19.9536 52.9626 19.9104 52.9576Z" fill="white"/>
<path d="M29.6137 57.1717C29.6137 57.1717 29.6236 57.175 29.6302 57.1783C29.5856 57.1188 29.5938 57.1304 29.6137 57.1717Z" fill="white"/>
<path d="M20.0635 53.9824C20.115 54.0505 20.1781 54.1203 20.2528 54.1917C20.2262 54.1518 20.1681 54.0887 20.0635 53.9824Z" fill="white"/>
<path d="M20.0418 54.0921C19.9854 54.044 19.9422 54.0058 19.899 53.9692C19.8558 53.9842 19.8641 54.0157 20.0418 54.0921Z" fill="white"/>
<path d="M20.5317 54.3974C20.4271 54.3342 20.3341 54.2695 20.2527 54.1914C20.2793 54.2279 20.2876 54.2479 20.2743 54.2479C20.3291 54.2794 20.4055 54.3243 20.5317 54.3974Z" fill="white"/>
<path d="M75.9947 31.9651C75.9947 31.9501 75.9947 31.9352 75.998 31.9186C75.8385 31.7691 75.885 31.8438 75.9947 31.9651Z" fill="white"/>
<path d="M45.0009 58.522C44.9908 58.5237 44.9857 58.5304 44.9773 58.5338C44.9874 58.5355 44.9993 58.5389 45.0077 58.5406L45.0009 58.522Z" fill="white"/>
<path d="M45.7111 58.3454C45.4171 58.6211 45.2394 58.5912 45.0085 58.5381L45.2577 59.1559C45.4121 58.8852 45.5633 58.6145 45.7111 58.3438V58.3454Z" fill="white"/>
<path d="M70.8875 48.2704L70.3925 48.4614C70.6118 47.8253 70.9938 47.6243 70.4723 47.7323C70.6815 47.9997 70.3427 48.3335 70.0055 48.669C69.6551 48.9912 69.2996 49.3085 69.4873 49.5925L69.1468 49.6922C69.2232 49.6373 69.2083 49.5958 69.283 49.5427C68.5904 49.6888 69.2166 50.217 68.5007 50.6505C68.2433 50.7884 68.0158 50.8166 68.1304 50.6405L67.7035 51.1471C67.5424 51.2451 67.5125 51.1222 67.6719 51.0242C67.4145 51.2252 67.1637 51.4361 66.8946 51.6238L66.8897 51.6039C66.8315 51.7683 66.6538 52.0789 66.5591 52.2234C66.2967 52.2782 66.6256 52.0938 66.5259 52.059C66.403 52.2035 66.2801 52.3513 66.1539 52.4941C66.011 52.4759 66.016 52.3745 66.0974 52.2533C66.1755 52.1287 66.3299 51.9859 66.4944 51.8945C66.0991 51.7484 66.031 51.8447 65.9147 52.0108C65.7968 52.1719 65.6307 52.4028 65.061 52.5124L65.4563 52.1769C65.2154 52.0972 65.0294 52.137 64.8268 52.2085C64.7255 52.2433 64.6208 52.2882 64.5012 52.3264C64.38 52.3629 64.2471 52.3945 64.0927 52.4111C64.1807 52.431 64.5095 52.431 64.757 52.4626C65.0045 52.4958 65.1806 52.5788 64.9696 52.8047C64.8035 52.8496 64.5959 52.9276 64.3833 53.2017C64.2637 52.9924 64.0212 53.1934 63.6857 53.3927L63.5595 53.0987C63.2356 53.3777 63.3353 53.5006 63.1808 53.7415C62.7473 53.9258 62.5497 53.7481 62.3603 53.6103C61.671 53.8993 62.9981 53.7365 62.2291 54.1833C61.9185 54.2597 61.6793 54.3726 61.4402 54.5288C61.3206 54.6068 61.2027 54.6948 61.0748 54.7945C60.9452 54.8908 60.8074 54.9955 60.6529 55.1117C60.2044 55.1815 60.6479 54.9025 60.4669 54.8809L60.2078 55.2662C60.1181 55.2978 60.1164 55.2131 60.1148 55.1715C59.849 55.3891 60.2144 55.4805 59.7643 55.7545C59.7643 55.9422 59.4653 55.9206 59.1149 55.9239C58.7628 55.9289 58.3608 55.9605 58.1233 56.2495C57.9439 56.2162 58.13 56.0402 58.0436 55.9405C57.6732 56.2079 57.5104 56.3142 57.3693 56.4255C57.2281 56.5385 57.1102 56.6531 56.8162 56.9271L56.1634 56.9105C56.6667 57.0019 56.2 57.4536 55.7665 57.8174C55.9558 57.8871 56.1203 57.9436 56.2232 57.9602C55.9774 58.0997 55.7233 58.2193 55.4725 58.3505C55.3612 58.3273 55.4127 58.1994 55.5074 58.035C55.4609 58.0748 55.416 58.1147 55.3811 58.1496C55.0639 58.1147 55.1652 57.8954 55.3197 57.6696C55.4326 57.7028 55.5472 57.741 55.6585 57.7808C55.8014 57.5417 55.9209 57.2842 55.8279 57.1165C55.7881 57.1679 55.6984 57.2244 55.5954 57.2709C55.6319 57.2062 55.6502 57.153 55.6187 57.1281C55.5821 57.1032 55.5207 57.1929 55.416 57.3075L55.142 57.0151L55.137 57.163C54.7766 57.1812 54.4211 57.2161 54.0607 57.2211C53.7385 57.4819 53.4462 57.7808 53.0874 58.0665C52.727 58.3439 52.2985 58.5997 51.7122 58.7973C51.9596 58.4801 51.6956 58.3655 51.654 58.0599C52.0394 58.3107 52.541 57.7426 53.1588 57.6696C52.835 57.7127 52.8732 57.5516 52.9413 57.4819L51.9181 57.9968C51.8932 57.741 51.6524 57.8639 51.3484 57.8091C51.6557 58.2625 50.5927 58.2741 50.1692 58.5017C50.116 58.3406 50.1974 58.1529 50.7455 58.1014C50.415 57.9669 50.2489 58.1462 50.0778 58.3273C49.9084 58.505 49.7357 58.6894 49.4168 58.5714C49.5497 58.5498 49.6261 58.5648 49.6676 58.4734C49.3753 58.6628 48.5946 58.6495 48.7591 58.4801L48.8919 58.4585C48.6694 58.4784 48.3887 58.4884 48.0914 58.5233C47.7941 58.5532 47.4818 58.6046 47.1928 58.6545C46.6148 58.7475 46.1315 58.897 46.0733 59.1129C46.0617 59.0581 46.168 58.5947 46.2162 58.5066C45.9654 58.7641 45.7079 59.0049 45.4455 59.2474C45.1831 59.4899 44.9157 59.7341 44.6416 59.9766C44.7795 59.6095 44.2414 58.7541 44.9755 58.5332C44.7645 58.4867 44.5054 58.4352 44.0553 58.5515C44.1998 58.6063 44.4158 59.083 44.2148 59.1145C43.67 58.6993 43.8344 58.892 43.1701 58.5349C43.386 58.6163 43.1302 59.1843 42.7814 59.1577C42.8379 59.0747 42.7714 58.5947 42.8993 58.5382C42.6087 58.7143 42.3147 58.8837 42.0174 59.0564C42.2383 58.9667 42.0772 58.5847 41.8961 58.417C41.9792 58.5266 41.1587 58.3788 40.9295 58.4053C41.0474 58.4568 41.1637 58.515 41.2816 58.5615C40.3266 58.4004 40.2651 59.2757 39.2951 59.1528C39.4247 59.0514 39.6539 58.4784 39.1772 58.3505C39.051 58.4801 38.767 58.794 38.3966 59.0896C38.2122 59.2375 38.0046 59.3803 37.7887 59.4949C37.5728 59.6029 37.3452 59.6793 37.121 59.7009L36.9798 59.5132L36.2872 59.5962C36.7788 59.2325 38.0494 58.5183 38.7022 58.2243C38.36 58.0532 38.6258 58.02 38.0893 57.9718C37.9216 57.7974 38.4115 57.7742 38.5677 57.7842C38.3634 57.7426 38.1591 57.7061 37.9548 57.6596L37.3469 57.5167C37.3535 57.8556 36.3503 57.7061 36.3503 57.9868L37.7521 57.8489C37.7571 58.0183 37.5296 58.2243 37.1858 58.3638C37.0147 58.4336 36.8137 58.4851 36.6011 58.5083C36.4948 58.5199 36.3852 58.5249 36.2739 58.5183C36.1643 58.51 36.053 58.4917 35.9434 58.4635C35.7424 58.2907 36.2158 57.9071 36.2158 57.7941C36.0829 57.8871 35.3438 57.8556 35.279 57.7592L35.6843 57.6529C35.2242 57.4387 34.799 57.9453 34.2825 57.4968C34.0848 57.4304 33.7792 56.9437 33.7012 57.1281C33.9387 57.5732 33.751 58.7425 33.4603 58.9717C33.4271 58.9501 33.173 58.804 32.9089 58.6246C32.6448 58.4402 32.3691 58.2326 32.2761 58.1114C32.0203 57.736 32.9537 57.55 32.7345 57.2261C32.6996 57.3125 32.4904 57.3739 32.404 57.3889C32.213 57.2593 32.5634 57.1364 32.0967 57.0583C31.929 57.3739 31.1815 56.7677 31.8044 57.2792C31.3327 57.2444 31.351 57.0733 30.8278 56.9321C30.9341 57.1879 30.1368 57.5167 29.6585 57.4486C29.7116 57.3756 29.6469 57.2344 29.6136 57.1696C28.7084 56.8424 28.2849 56.5052 27.4528 56.188C27.4046 56.0834 27.0492 55.8226 27.2717 55.7578C27.1322 55.7645 26.9794 55.8243 26.7236 55.7263C26.3516 55.2513 27.3016 55.9206 27.0674 55.4389C26.9628 55.605 26.3101 55.424 25.9065 55.3692C25.8849 55.708 26.7153 55.7811 27.1173 55.8193C27.0376 56.0136 26.8 56.1465 26.4596 56.2063C26.2901 56.2362 26.0942 56.2478 25.8799 56.2395C25.6673 56.2312 25.4414 56.1897 25.2039 56.1349C24.4731 55.9073 25.0229 55.7495 24.8784 55.7479C24.7222 55.6648 24.5827 55.605 24.4581 55.5602C24.3352 55.512 24.224 55.4821 24.1226 55.4639C23.92 55.4273 23.7523 55.4356 23.5945 55.4423C23.2806 55.4522 22.9965 55.4589 22.5547 55.0254C22.2774 54.5586 22.7989 54.552 22.8039 54.3311C23.0945 54.4357 23.2722 54.5952 23.4334 54.738C23.5945 54.8809 23.729 55.0254 23.915 55.1151L23.5214 54.7696C23.7356 54.7795 24.126 54.9058 24.2871 55.0769C24.2289 54.9789 24.0695 54.8593 23.8502 54.7247C23.6293 54.5952 23.3553 54.4357 23.063 54.2647C22.7723 54.0919 22.4584 53.9142 22.1744 53.7249C21.8937 53.5289 21.6329 53.3312 21.4369 53.1419C21.3323 53.1286 21.1961 53.0987 21.0964 53.0921C20.9968 53.0838 20.9337 53.1004 20.9686 53.1901L21.2775 53.3412C21.4286 53.6917 20.5666 53.2465 20.8805 53.5638C20.643 53.5023 20.3889 53.4375 20.1265 53.3362C19.869 53.2299 19.6 53.0954 19.3724 52.8446L19.4555 52.524C19.4339 52.5639 19.492 52.6652 19.5817 52.7615C19.6714 52.8579 19.7976 52.9393 19.8989 52.9559C19.8225 52.9442 19.7478 52.8828 19.6714 52.7981C19.5966 52.7117 19.5219 52.5988 19.4422 52.4941C19.2811 52.2832 19.1017 52.1005 18.8592 52.1669L19.0984 52.6137C18.8642 52.5323 18.5802 52.4675 18.3028 52.3662C18.0304 52.2566 17.7663 52.1071 17.5703 51.8796C17.5836 52.2848 17.6965 51.9394 17.7979 52.4858C17.7979 52.3413 17.8693 52.3314 17.9739 52.3862C18.0271 52.4127 18.0885 52.4576 18.1533 52.5074C18.2197 52.5556 18.2912 52.6104 18.3626 52.6635C18.6433 52.8795 18.9024 53.0738 18.8077 52.7134C18.8559 53.0073 18.9804 53.1568 19.1216 53.3096C19.2628 53.4641 19.4322 53.6053 19.5667 53.9142C19.6099 53.8212 19.5103 53.6418 19.8956 53.9674C19.9305 53.9557 19.9953 53.9557 20.0351 53.9557C20.0451 53.9674 20.0501 53.9707 20.0584 53.9806C20.0534 53.9707 20.0484 53.964 20.0418 53.9557C20.0683 53.9557 20.0717 53.9541 20.0351 53.9458C19.962 53.8411 19.9122 53.7431 19.9122 53.675C20.08 53.6501 20.3241 53.7498 20.56 53.8627C20.8025 53.9657 21.04 54.082 21.1845 54.1002C21.407 54.2962 21.02 54.1335 21.0981 54.3095L21.5283 54.3676C21.4419 54.5802 22.0016 55.0968 21.3423 54.8443C21.5167 54.9622 21.6977 55.0652 21.8771 55.1715C22.1362 55.4605 22.5531 55.7661 22.8753 55.8276C23.1161 56.007 23.6526 55.9505 23.3437 55.9887C23.6576 56.095 23.9649 56.2129 24.2788 56.3093L24.2622 56.3641C24.694 56.5783 25.1806 56.7145 25.6673 56.8773C26.1589 57.0301 26.6373 57.2493 27.0774 57.633C27.4013 57.6961 27.7385 57.7493 28.2234 58.0001L28.2583 58.2193C28.6736 58.2891 29.3861 58.804 29.6186 58.6694C29.7532 58.9883 30.2348 59.1561 30.763 59.2889C30.8959 59.3222 31.0304 59.3521 31.1649 59.3803C31.2995 59.4052 31.4323 59.4301 31.5602 59.4534C31.8144 59.5015 32.0452 59.553 32.218 59.6228L32.306 59.3853C32.7877 59.5331 33.2793 59.5597 33.9071 59.5979L33.9171 59.372C34.4735 59.3188 35.2309 59.7955 36.0696 59.9317C35.9982 60.0081 35.7906 59.945 35.6511 59.8669C35.764 59.9517 35.8836 60.0164 36.0065 60.0646C36.1311 60.1094 36.259 60.1377 36.3885 60.1543C36.6493 60.1892 36.9184 60.1792 37.1841 60.1642C37.7156 60.1427 38.2355 60.0663 38.669 60.3038C38.9048 60.249 39.0659 60.2971 39.2187 60.3702C39.1971 60.3685 39.1789 60.3702 39.1606 60.3752C39.1839 60.3802 39.2187 60.3852 39.2536 60.3885C39.3499 60.44 39.4496 60.4914 39.5576 60.5363C39.4679 60.4732 39.3798 60.4234 39.3034 60.3935C39.4795 60.4067 39.7486 60.3984 40.0143 60.3652L40.1057 60.6144C40.1273 60.6144 40.1439 60.6144 40.1671 60.6127C40.4163 60.7223 40.383 60.5164 40.2601 60.3254C40.3947 60.2971 40.5176 60.2606 40.6156 60.2091C40.7036 60.4101 40.878 60.3918 41.0607 60.3785C41.2434 60.3586 41.4344 60.342 41.564 60.5546C41.7516 60.3586 42.8844 60.4765 43.0339 60.0447C43.0405 60.0995 43.1169 60.1277 42.9774 60.1294C43.2647 60.1825 43.5537 60.2357 43.8145 60.1211L43.9341 60.4283C44.1467 60.2938 44.3576 60.1643 44.5686 60.0264C44.9522 60.2041 45.1183 60.3087 44.733 60.5512C45.198 60.3619 45.3841 60.3237 45.5551 60.2872C45.7246 60.2473 45.879 60.2207 46.261 60.0148L46.2328 60.2141C46.5152 60.1892 46.9453 59.9002 47.1247 60.0513C47.2061 60.0928 47.3174 60.1244 47.4503 60.141C47.5831 60.1559 47.7393 60.1609 47.9136 60.1576C48.2608 60.1476 48.6827 60.1244 49.1311 60.0696C49.5796 60.0114 50.0579 59.96 50.5279 59.9101C50.9963 59.8553 51.4564 59.8238 51.8716 59.8404C51.4547 59.3321 52.6606 59.945 52.6356 59.4899C52.7552 59.6062 52.9944 59.6361 52.7602 59.8055C53.1539 59.6577 53.4694 59.6477 53.7468 59.6012C54.0242 59.5597 54.265 59.4949 54.4959 59.2424C54.6221 59.3537 54.3713 59.48 54.4743 59.5381C54.5324 59.4932 54.7018 59.3604 54.8065 59.4202C54.9094 59.4799 54.7168 59.5597 54.6022 59.6494C55.0157 59.5431 55.2101 59.362 55.2998 59.176C55.3894 58.9867 55.3695 58.779 55.3463 58.5797C55.8047 58.6462 56.0073 58.5681 56.2249 58.2309C56.4026 58.3123 56.6783 58.3688 56.1933 58.5681C56.4773 58.4983 57.9705 58.221 57.8925 57.8938C58.0054 57.9403 58.2878 57.7808 58.3475 57.721C58.6631 57.6247 58.8342 57.5732 59.0036 57.5217C59.1714 57.4653 59.3358 57.4005 59.6314 57.2709L59.4454 57.2859C59.5467 56.8341 59.9138 57.0151 60.3822 56.7826V56.8241C61.588 56.6115 60.8057 56.5102 62.0115 56.3259L61.8554 56.1349C61.8006 55.8774 62.0647 55.8376 62.4135 55.8043C62.7623 55.7711 63.1991 55.7412 63.4582 55.4954L63.1775 55.4838C63.4266 55.1582 64.4248 55.6432 64.7952 55.517C64.8882 55.517 64.7155 55.6465 64.6258 55.7246C65.6473 55.5187 64.5943 55.3874 65.2071 54.9689C65.4081 55.0503 65.2586 55.4306 65.7137 55.2164C65.7851 55.2164 65.8848 55.1416 66.0027 55.0303C66.1206 54.9174 66.2568 54.7613 66.4063 54.6052C66.7053 54.2896 67.0657 53.9856 67.4344 53.9308C67.2384 53.9026 67.0458 53.8727 67.2816 53.6036C67.4892 53.4408 67.853 53.3512 68.1902 53.2249C68.5257 53.097 68.823 52.916 68.8994 52.6137C68.9741 52.6037 69.0156 52.617 69.0356 52.6419C69.3113 52.333 69.9823 51.7168 70.0371 51.3979C70.2364 51.5009 70.4523 51.4477 70.6516 51.2916C70.8543 51.1388 71.0519 50.9046 71.2379 50.6771C71.4273 50.4545 71.5934 50.2236 71.7445 50.0891C71.8973 49.9546 72.0402 49.9147 72.1664 50.0559L72.6099 49.6174L73.0351 49.159L73.0683 49.2371C73.6745 48.7072 73.7193 48.3584 73.7692 48.0312C73.9303 47.9283 73.8937 48.0761 73.9137 48.1143C74.1346 47.92 74.3106 47.7738 74.4402 47.6326C74.5697 47.4914 74.6644 47.3685 74.7441 47.2406C74.8239 47.1127 74.8853 46.9782 74.9468 46.8154C74.9767 46.7324 75.0099 46.646 75.0381 46.5447C75.0647 46.4417 75.0929 46.3288 75.1262 46.2009L75.3853 46.2624C75.3952 46.1876 75.4799 46.0763 75.6095 45.9368C75.739 45.7956 75.9167 45.6262 76.0862 45.4136C76.2606 45.2044 76.4466 44.9685 76.611 44.7127C76.7671 44.452 76.8884 44.1613 76.9615 43.8723C76.9814 43.8955 77.013 43.9387 76.9997 44.0367C77.0445 43.874 77.1093 43.7145 77.189 43.5551C77.2604 43.3923 77.3418 43.2295 77.4315 43.0684C77.6109 42.7462 77.8285 42.4356 77.9796 42.1167C78.1357 41.8028 78.2802 41.5088 78.3151 41.2397C78.345 40.969 78.2935 40.7381 78.1058 40.5654V40.1203C78.1058 39.9725 78.0876 39.8213 78.0776 39.6751C78.0145 39.9459 77.958 40.0638 77.9032 40.097C77.8517 40.1302 77.8119 40.0788 77.7737 40.009C77.6956 39.8678 77.6092 39.6502 77.4996 39.8512C77.5179 39.4343 77.9514 38.8181 77.9082 39.343L77.8501 39.416C78.0643 39.5522 78.164 39.2217 78.247 38.8613C78.3002 38.4976 78.3367 38.1106 78.4945 38.1371C78.5726 37.0293 78.5576 35.9265 78.443 34.8485C78.3267 33.7722 78.1009 32.7209 77.7454 31.7459L77.4847 32.0947C77.4066 31.8705 77.3385 31.6429 77.2505 31.4237C77.2571 31.2211 77.4199 31.0816 77.5993 31.5632C77.6889 31.2327 77.1126 30.8324 77.0329 30.8573C76.8934 30.3773 77.0296 30.4188 77.1874 30.5501C77.3485 30.6796 77.5212 30.9038 77.4647 30.7593L77.2654 30.3873V30.4903C76.988 30.2445 76.8402 30.2843 76.5795 29.7346C76.4698 29.3575 76.6874 29.4539 76.6293 29.3127C76.6525 29.3011 76.6376 29.2496 76.5263 29.1017C76.3934 28.831 76.2506 28.5669 76.1061 28.3045L76.0397 28.7596C75.7191 28.4905 75.6277 28.0338 75.5563 28.552C75.5912 28.3576 75.4999 28.0836 75.3537 27.768C75.2009 27.4574 74.9866 27.1103 74.7541 26.7864C74.2957 26.1337 73.7874 25.559 73.731 25.368C73.2244 25.0707 72.8806 24.6621 72.4554 24.1489C72.5235 24.3117 72.3458 24.599 71.9937 24.1522C72.6298 23.8499 71.4937 23.1872 71.4937 22.5228C71.5303 22.7836 71.2247 22.5062 70.9224 22.2687C70.6201 22.0312 70.3244 21.8352 70.4125 22.2222C70.0952 21.8568 70.5619 22.0179 70.3942 21.6542C70.1351 21.5097 69.8926 21.3187 69.6468 21.121C69.401 20.9217 69.1618 20.6975 68.916 20.4633C68.6768 20.2225 68.4094 19.9999 68.1353 19.7773C67.858 19.5581 67.5789 19.3306 67.2567 19.1661C67.1903 19.2276 67.3198 19.4668 66.991 19.4153L66.5791 18.6429C66.3133 18.5267 66.1007 18.9452 65.8001 18.4303C65.8283 18.53 65.8682 18.6795 65.6905 18.613C65.1374 18.1712 64.5096 17.839 63.8651 17.5351C63.5379 17.3956 63.2057 17.2627 62.8719 17.1332C62.5364 17.0119 62.1942 16.904 61.8554 16.786C60.4868 16.3459 59.1215 15.9738 57.7845 15.3228C58.1349 15.5653 57.8775 15.5254 57.5868 15.4855C57.7695 15.5569 57.5453 15.6981 57.5619 15.821L57.0055 15.5603C56.8178 15.4756 56.6285 15.3975 56.4391 15.3145C56.185 15.6035 55.1636 15.1982 55.0141 15.5055L55.3911 15.4805C55.127 15.645 55.2848 15.8642 55.4841 16.1034C55.6851 16.3459 55.9259 16.6066 55.8628 16.8392C56.1501 16.6581 56.4823 16.8624 56.8477 17.0518C57.0304 17.1498 57.2214 17.2444 57.4274 17.286C57.6334 17.3308 57.8509 17.3291 58.0951 17.2228C58.2628 17.3557 57.9041 17.3408 57.9821 17.4703C58.11 17.3923 58.2412 17.3524 58.399 17.364C58.5552 17.3757 58.7379 17.4321 58.9654 17.5334L58.899 17.57C59.2378 17.6331 59.5201 17.7211 59.7793 17.8075C59.9088 17.8507 60.0317 17.8955 60.153 17.9404C60.2725 17.9902 60.3888 18.0433 60.5051 18.0965C60.7376 18.2061 60.9768 18.3124 61.2392 18.4486C61.5 18.5865 61.7906 18.731 62.1344 18.9004L62.1162 18.6396C62.4118 18.7924 62.445 18.8921 62.5646 19.0067C62.8088 18.9153 62.5978 18.8207 62.3819 18.7193C62.1693 18.613 61.9451 18.5233 62.1809 18.3988C62.2424 18.5449 62.4018 18.6861 62.6161 18.8107C62.827 18.9386 63.0944 19.0449 63.3469 19.1711C63.8502 19.4302 64.3418 19.676 64.3368 19.9966C64.777 20.2424 64.3352 19.6843 64.777 19.9301L64.8235 20.1245L65.0278 20.0198C65.3068 20.2059 65.3583 20.45 65.3035 20.5663C65.2453 20.5081 65.0892 20.4832 65.0095 20.4517C65.1557 20.6227 65.4114 20.7756 65.6539 20.8885C65.8931 21.0031 66.114 21.0878 66.1605 21.1493L65.8001 20.8187C65.9545 20.8951 66.1107 20.9782 66.2685 21.0662C66.4263 21.1526 66.5741 21.2622 66.7302 21.3635C66.883 21.4698 67.0375 21.5761 67.1936 21.6824L67.4261 21.8452C67.5025 21.9017 67.5756 21.9615 67.6503 22.0196C67.9493 22.2538 68.2499 22.4813 68.5539 22.6889C68.8462 22.9032 69.1419 23.1075 69.4392 23.2819V23.1307C69.8893 23.4048 70.0155 23.5759 70.1417 23.7602C70.2663 23.9479 70.3909 24.1505 70.8177 24.5276L70.7696 24.5159C71.0054 24.604 71.2562 24.7883 71.4555 25.0292C71.1682 24.9029 71.6266 25.5989 71.2695 25.4162C71.7196 25.76 71.8409 25.8397 71.9521 25.8646C72.0618 25.8912 72.1631 25.8613 72.5584 26.0207L72.5235 26.2699C72.8141 26.3612 72.8955 26.3247 73.2859 26.7499C72.8739 26.4758 73.2825 27.2083 72.7975 26.921C72.8989 27.2166 73.0267 27.4392 73.1729 27.6152C73.3124 27.7946 73.4636 27.9308 73.5998 28.0554C73.8622 28.3078 74.0715 28.5121 73.9618 28.8991C74.3206 28.9905 74.2475 28.738 74.1097 28.4839C73.9668 28.2331 73.7675 27.9856 73.8971 28.0836C73.8888 27.7763 74.4734 28.2447 74.6262 28.5985C74.7242 28.7646 74.6727 28.9888 74.6511 29.2728C74.6412 29.414 74.6395 29.5701 74.6711 29.7395C74.6976 29.9123 74.7558 30.0983 74.872 30.3026C74.8288 30.2195 74.7923 30.2328 74.7491 30.1498C74.7774 30.3341 74.8969 30.4637 75.0066 30.6115C75.1162 30.7577 75.2324 30.9171 75.2225 31.158C75.6028 31.246 75.4417 31.6679 75.8254 31.5765C75.6826 31.3224 75.5314 31.0733 75.3803 30.8258C75.5331 31.0234 75.759 31.1829 75.9699 31.3988C76.1642 31.6197 76.3602 31.8937 76.3918 32.3223C76.2938 32.2907 76.1177 32.098 75.9965 31.9685C75.9832 32.2276 76.229 32.3671 76.2057 32.6378C76.0064 32.6711 75.9001 32.4352 75.7772 32.1445C75.6477 31.8572 75.5082 31.5101 75.2574 31.339C75.2175 31.628 75.9051 32.1246 75.4135 32.0499C75.5746 32.0831 75.6743 32.1562 75.7407 32.2508C75.8038 32.3472 75.8337 32.4668 75.8636 32.5947C75.9284 32.8488 75.9649 33.1378 76.2589 33.3753L76.0197 33.4052C76.0878 33.4866 76.2506 33.651 76.2905 33.8287C76.1626 33.7507 76.038 33.6726 75.9101 33.5995C76.1011 33.8005 76.1094 34.0513 76.0994 34.2954C76.0779 34.5429 76.0463 34.7821 76.1609 34.998C75.9483 34.0397 76.3934 34.724 76.4732 34.2722C76.616 34.5595 76.6658 34.7588 76.6492 34.9116C76.6326 35.0661 76.5662 35.1724 76.4931 35.2837C76.3502 35.5062 76.1792 35.7371 76.2938 36.3932C76.2539 36.2188 76.3635 35.7006 76.5064 35.973C76.4947 36.2371 76.4134 36.5825 76.3004 36.742C76.3287 36.9612 76.3436 37.0625 76.3718 37.0974C76.3984 37.1323 76.4333 37.0974 76.4698 37.0492C76.5462 36.9512 76.621 36.7818 76.7007 36.9745C76.5545 37.1323 76.5844 37.2386 76.6592 37.3632C76.7323 37.4861 76.8668 37.6239 76.89 37.8282L76.6492 37.8182C76.5296 38.3248 76.6492 38.4029 76.7655 38.4743C76.8768 38.5424 77.0113 38.6039 76.8319 39.0623C76.7439 38.9128 76.6608 38.7666 76.5662 38.6238C76.5745 38.7866 76.5695 38.951 76.5728 39.1154L76.3204 38.9742C76.3768 39.2466 76.3851 39.4244 76.3586 39.5938C76.332 39.7632 76.2456 39.9193 76.1476 40.1585C76.3419 40.0837 76.5545 40.3329 76.4399 40.7929C76.1974 41.0537 76.2805 40.5571 76.0945 41.1916C75.9981 40.9989 75.8819 40.7979 76.1709 40.5887C76.1028 40.5388 76.0612 40.406 75.9948 40.3578C75.935 40.4275 75.8902 40.5106 75.8553 40.6003C75.8121 40.6883 75.7789 40.7846 75.7523 40.8777C75.6992 41.0653 75.6693 41.2514 75.6311 41.361C75.6693 41.2796 75.7158 41.1833 75.7673 41.1417V41.645C75.7606 41.8111 75.7457 41.9788 75.7324 42.1466C75.5895 42.2496 75.5713 42.1101 75.553 41.9755C75.4999 42.1615 75.548 42.3276 75.4534 42.6C75.3055 42.4489 75.1162 42.3775 75.1893 41.9822L75.1112 42.4339C75.0863 42.5867 75.0398 42.7312 75.0049 42.8824C74.9003 42.899 74.5847 43.1814 74.5747 43.0435C74.4917 43.1382 74.4402 43.2644 74.392 43.4056C74.3389 43.5451 74.2957 43.7012 74.2492 43.864C74.2027 44.0268 74.1512 44.1945 74.0814 44.3506C74.0117 44.5084 73.907 44.6463 73.7825 44.7625C73.7941 44.8124 73.7825 44.8904 73.7243 45.0233C73.6247 45.1462 73.5167 45.2575 73.4104 45.3688C73.2942 45.4734 73.1796 45.5781 73.0699 45.6893C72.8457 45.9119 72.6647 46.1793 72.5052 46.5447L71.9588 46.6311C71.7943 46.8752 71.9704 46.8437 72.1199 46.8503C72.2694 46.857 72.3939 46.9035 72.1116 47.3204C71.6963 47.9033 71.7113 47.3021 71.4688 47.41C71.4107 47.5944 71.3376 47.8602 71.1964 48.1126C71.0486 48.3601 70.8227 48.586 70.4889 48.7006C70.6018 48.5063 70.7613 48.4299 70.8908 48.2754L70.8875 48.2704ZM64.9829 52.7997C65.0826 52.6818 65.252 52.3995 65.4148 52.4659C65.4148 52.7881 65.2354 52.7399 64.9829 52.7997ZM54.554 57.6745C54.6404 57.5682 54.8131 57.5616 55.0224 57.5981C54.8928 57.6546 54.7384 57.6878 54.554 57.6745ZM22.372 55.2911C22.372 55.2911 22.3853 55.2911 22.392 55.2895C22.6461 55.5419 22.5581 55.4489 22.372 55.2911ZM21.8007 54.846C21.7209 54.8393 21.7077 54.8709 21.7176 54.9141C21.7924 54.8858 21.9335 54.9623 22.0847 55.0686C22.0714 54.9888 22.0133 54.9058 21.8007 54.846ZM76.518 29.2844L76.5296 29.4372C76.317 29.1914 76.4134 29.2396 76.518 29.2844Z" fill="white"/>
<path d="M55.73 57.0068C55.7815 57.0351 55.8047 57.0733 55.828 57.1148C55.8712 57.0583 55.8595 57.0151 55.73 57.0068Z" fill="white"/>
<path d="M73.7627 44.7744C73.7627 44.7744 73.7726 44.7628 73.7775 44.7578C73.7726 44.7396 73.7643 44.7264 73.7544 44.7148L73.7627 44.7744Z" fill="white"/>
<path d="M32.5037 57.0391C32.6299 57.1072 32.6947 57.1703 32.7329 57.2267C32.7545 57.1719 32.7063 57.1072 32.5037 57.0391Z" fill="white"/>
<path d="M18.4026 53.0393L18.8128 53.2718C18.6252 53.1456 18.5936 53.0542 18.5255 52.9546C18.4989 53.0061 18.5205 53.124 18.4026 53.0393Z" fill="white"/>
<path d="M16.4393 49.297C16.3728 49.2705 16.3413 49.2007 16.2748 49.1758L16.2051 49.2655C16.4044 49.4598 16.6037 49.5362 16.4393 49.2987V49.297Z" fill="white"/>
<path d="M18.5537 52.1521C18.6484 51.976 18.3893 51.8448 18.1219 51.6704C18.1368 51.682 18.1518 51.692 18.1651 51.707C17.9126 51.8631 18.2315 52.0142 18.5537 52.1537V52.1521Z" fill="white"/>
<path d="M18.0618 51.6272C17.9805 51.5708 17.9007 51.511 17.8326 51.4429C17.7297 51.5043 17.909 51.5375 18.0618 51.6272Z" fill="white"/>
<path d="M20.9568 54.4822C20.8555 54.3577 20.7376 54.65 20.7077 54.5337C20.4254 54.6616 21.7408 54.8144 20.9568 54.4822Z" fill="white"/>
<path d="M18.7731 51.4714L18.7034 51.7371C18.7897 51.7238 18.8794 51.7056 18.9658 51.6873C18.8994 51.6175 18.8362 51.5445 18.7731 51.4697V51.4714Z" fill="white"/>
<path d="M20.6479 53.0805L20.2759 52.74C20.2576 52.7782 20.1912 52.7633 20.1165 52.7334C20.3656 52.9161 20.6164 53.1486 20.6479 53.0805Z" fill="white"/>
<path d="M20.1165 52.7338C19.9869 52.6374 19.8574 52.5577 19.7627 52.5361C19.8325 52.5876 19.9936 52.684 20.1165 52.7338Z" fill="white"/>
<path d="M19.3542 51.8301L19.4406 51.9596L19.708 52.1872L19.3542 51.8301Z" fill="white"/>
<path d="M25.3103 55.7532L25.8335 55.9193C25.9182 55.8645 25.8053 55.7549 25.6093 55.7001C25.4664 55.7001 25.2688 55.6436 25.3103 55.7532Z" fill="white"/>
<path d="M24.1443 54.418C24.2489 54.5309 24.2323 54.5841 24.2672 54.6953L24.4233 54.4279L24.1443 54.418Z" fill="white"/>
<path d="M25.5762 55.0438C25.6625 54.989 26.38 55.1485 25.7605 54.8794C25.6758 54.9342 25.1609 54.7714 25.5762 55.0438Z" fill="white"/>
<path d="M33.0984 58.0701L32.9639 58.0386L32.8625 58.5368L33.0984 58.0701Z" fill="white"/>
<path d="M40.2936 58.0021C39.6808 57.8293 40.1159 58.3027 39.5662 58.1017C39.4067 58.2097 40.0163 58.2645 39.8568 58.3542C40.2471 58.2595 40.4398 58.3476 40.2953 58.0004L40.2936 58.0021Z" fill="white"/>
<path d="M39.855 58.3555C39.7919 58.3704 39.7255 58.3887 39.6541 58.4153C39.767 58.3937 39.8218 58.3737 39.855 58.3555Z" fill="white"/>
<path d="M55.6721 14.9643C55.5326 14.9128 55.3897 14.868 55.2485 14.8198L55.5126 15.0125L55.6721 14.9627V14.9643Z" fill="white"/>
<path d="M54.8166 15.2717L54.7369 14.9429L54.4612 15.2186C54.5592 15.2103 54.7485 15.1937 54.8166 15.2717Z" fill="white"/>
<path d="M63.6956 52.7715L63.7055 52.8545C63.8002 52.8994 63.8832 52.8595 64.0543 52.7814L63.6956 52.7715Z" fill="white"/>
<path d="M68.3398 50.0859L68.2634 50.1374L68.5757 50.2653L68.3398 50.0859Z" fill="white"/>
<path d="M71.4041 46.8735C71.2696 46.9915 71.1699 47.1858 71.0354 47.3054C71.2696 46.9931 71.7031 47.0911 71.4041 46.8735Z" fill="white"/>
</svg>
