<svg width="34" height="27" viewBox="0 0 34 27" fill="none" xmlns="http://www.w3.org/2000/svg">
<path d="M0 13.5C0 12.6716 0.691931 12 1.54545 12H32.4545C33.3081 12 34 12.6716 34 13.5C34 14.3284 33.3081 15 32.4545 15H1.54545C0.691931 15 0 14.3284 0 13.5Z" fill="white"/>
<path d="M0 1.5C0 0.67158 0.691931 0 1.54545 0H32.4545C33.3081 0 34 0.67158 34 1.5C34 2.32842 33.3081 3 32.4545 3H1.54545C0.691931 3 0 2.32842 0 1.5Z" fill="white"/>
<path d="M0 25.5C0 24.6716 0.691931 24 1.54545 24H32.4545C33.3081 24 34 24.6716 34 25.5C34 26.3284 33.3081 27 32.4545 27H1.54545C0.691931 27 0 26.3284 0 25.5Z" fill="white"/>
</svg>
