<svg width="20" height="21" viewBox="0 0 20 21" fill="none" xmlns="http://www.w3.org/2000/svg">
<path d="M10 1L12.0357 6.33609C12.2236 6.82866 12.3175 7.07495 12.4614 7.28263C12.5889 7.46671 12.7448 7.62788 12.9229 7.75972C13.1238 7.90845 13.362 8.00559 13.8385 8.19985L19 10.3044L13.8385 12.4089C13.362 12.6032 13.1238 12.7003 12.9229 12.849C12.7448 12.9808 12.5889 13.142 12.4614 13.3261C12.3175 13.5338 12.2236 13.7801 12.0357 14.2727L10 19.6088L7.96432 14.2727C7.77641 13.7801 7.68245 13.5338 7.53859 13.3261C7.41106 13.142 7.25516 12.9808 7.0771 12.849C6.87622 12.7003 6.63799 12.6032 6.16153 12.4089L1 10.3044L6.16153 8.19985C6.63799 8.00559 6.87622 7.90845 7.0771 7.75972C7.25516 7.62788 7.41106 7.46671 7.53859 7.28263C7.68245 7.07495 7.77641 6.82866 7.96432 6.33609L10 1Z" stroke="#FAF6E2" stroke-width="2" stroke-linecap="round" stroke-linejoin="round"/>
</svg>
